<svg version="1.1" id="Layer_1" xmlns="http://www.w3.org/2000/svg" xmlns:xlink="http://www.w3.org/1999/xlink" x="0px" y="0px"
	 width="100%" viewBox="0 0 2000 944" enable-background="new 0 0 2000 944" xml:space="preserve">
<path fill="#000000" opacity="1.000000" stroke="none" 
	d="
M277.100037,407.088745 
	C268.499146,416.808472 256.637238,419.547058 247.448486,413.913849 
	C240.113998,409.417450 237.523407,402.185608 236.876846,394.047119 
	C235.779846,380.238464 244.864243,365.347839 257.762543,360.138824 
	C272.189758,354.312378 284.945557,364.971802 286.200928,378.204926 
	C287.219208,388.938507 284.725952,398.652039 277.100037,407.088745 
z"/>
<path fill="#000000" opacity="1.000000" stroke="none" 
	d="
M328.521423,458.959167 
	C319.357819,461.480347 311.421326,459.994843 305.487000,452.857147 
	C299.322601,445.442657 297.043304,437.065186 300.242279,427.355347 
	C303.397186,417.779297 308.478333,410.486725 318.573486,407.433716 
	C328.943817,404.297516 339.552460,408.920135 344.138916,418.783508 
	C351.226715,434.026031 344.449829,451.830597 328.521423,458.959167 
z"/>
<path fill="#000000" opacity="1.000000" stroke="none" 
	d="
M354.805756,356.611389 
	C349.806030,364.454559 343.259552,369.337799 334.221771,370.565552 
	C321.812653,372.251312 310.871918,362.615692 310.932404,349.996887 
	C310.997711,336.374969 320.423035,323.995300 333.460205,320.407898 
	C348.484436,316.273712 362.324554,330.246704 358.841156,346.083008 
	C358.055237,349.655853 356.739471,353.066437 354.805756,356.611389 
z"/>
<path fill="#000000" opacity="1.000000" stroke="none" 
	d="
M273.676819,464.715759 
	C276.879944,475.728180 276.115601,485.770172 269.140808,494.819275 
	C259.473236,507.361877 243.735245,506.722229 235.127136,493.452240 
	C225.828094,479.117126 233.108154,457.061981 248.523438,451.101318 
	C257.815247,447.508392 267.663849,453.793365 271.758545,460.777039 
	C272.428131,461.919006 272.946045,463.149933 273.676819,464.715759 
z"/>
<path fill="#000000" opacity="1.000000" stroke="none" 
	d="
M174.777435,435.204468 
	C175.797745,426.072083 178.855789,418.254944 185.291199,412.208344 
	C196.180252,401.977142 209.659760,406.515106 213.792282,420.060791 
	C217.177643,431.157440 215.261047,442.148987 208.093033,451.771393 
	C203.033813,458.562927 194.792633,462.150146 188.815872,460.507599 
	C180.531876,458.231018 176.112457,450.211548 174.825790,441.644196 
	C174.532516,439.691467 174.773804,437.658417 174.777435,435.204468 
z"/>
<path fill="#000000" opacity="1.000000" stroke="none" 
	d="
M288.008728,278.893799 
	C299.236816,281.857422 304.693146,292.847534 299.775604,305.938354 
	C296.250519,315.322327 289.721985,322.409698 280.153381,326.016846 
	C273.359497,328.578003 266.562988,328.335175 261.099640,322.907776 
	C255.804550,317.647583 253.905289,311.409485 256.190857,303.828308 
	C260.095093,290.878143 267.784180,282.060364 281.260956,278.924866 
	C283.360901,278.436279 285.500702,277.975830 288.008728,278.893799 
z"/>
<path fill="#000000" opacity="1.000000" stroke="none" 
	d="
M214.041367,367.199158 
	C201.548691,376.084503 190.396515,369.867218 187.952698,358.520325 
	C185.694229,348.034149 189.629425,339.609558 195.081894,331.566467 
	C198.362381,326.727356 203.103973,323.489502 208.674103,321.040619 
	C217.971481,316.953003 227.754669,326.076813 228.438858,334.139587 
	C229.599731,347.819519 224.732803,358.483856 214.041367,367.199158 
z"/>
<path fill="#000000" opacity="1.000000" stroke="none" 
	d="
M398.736450,397.711792 
	C398.049286,387.474060 401.622406,379.686401 409.817841,374.217957 
	C417.339447,369.199066 427.014465,369.281342 433.648193,374.231384 
	C440.721710,379.509552 444.032501,389.337585 441.607574,397.858521 
	C437.330658,412.887054 422.534210,420.647583 409.931122,414.265656 
	C403.428955,410.973083 399.755524,405.418732 398.736450,397.711792 
z"/>
<path fill="#000000" opacity="1.000000" stroke="none" 
	d="
M386.685669,458.469147 
	C395.512268,457.159424 401.811371,460.878479 406.300415,467.470337 
	C411.592133,475.240875 411.656372,483.630280 407.637024,492.108948 
	C403.454926,500.930847 391.086639,508.832550 379.607391,502.503845 
	C370.536865,497.503113 363.258575,484.781891 369.804565,471.613342 
	C373.252136,464.677795 378.300568,459.765198 386.685669,458.469147 
z"/>
<path fill="#000000" opacity="1.000000" stroke="none" 
	d="
M317.063477,523.822144 
	C331.845062,515.319153 346.700256,527.855286 347.322296,542.187988 
	C347.575867,548.030457 346.679535,553.464722 343.210449,558.266418 
	C338.173981,565.237427 330.494781,568.338379 322.620819,566.002380 
	C314.378235,563.557007 309.525024,557.379883 307.890900,549.263367 
	C305.894989,539.350159 308.099274,530.432678 317.063477,523.822144 
z"/>
<path fill="#000000" opacity="1.000000" stroke="none" 
	d="
M414.405334,328.132812 
	C407.681183,328.770416 401.685181,328.263947 396.761108,323.631866 
	C386.481018,313.961365 390.048737,295.961792 403.673950,288.820496 
	C414.624573,283.081024 426.794861,286.443695 432.011139,296.650146 
	C436.154205,304.756683 432.181061,317.679871 423.715698,323.605377 
	C420.974335,325.524261 418.009796,327.007294 414.405334,328.132812 
z"/>
<path fill="#000000" opacity="1.000000" stroke="none" 
	d="
M263.005737,546.864014 
	C274.463715,554.534302 274.541534,574.088074 267.956116,582.046021 
	C261.285828,590.106506 252.556061,591.174500 244.493988,584.502991 
	C235.262680,576.863892 232.558578,562.285889 238.521194,551.978577 
	C242.690399,544.771484 252.720718,539.004272 263.005737,546.864014 
z"/>
<path fill="#000000" opacity="1.000000" stroke="none" 
	d="
M349.048004,244.433563 
	C353.089661,234.884155 360.352936,229.840149 369.725739,227.585571 
	C375.794159,226.125854 383.293945,229.354324 386.714661,234.526840 
	C390.297241,239.944168 389.551697,248.183548 384.967682,254.610367 
	C380.196198,261.300018 373.678345,265.645782 365.712097,266.791260 
	C356.104706,268.172699 343.720978,260.394440 349.048004,244.433563 
z"/>
<path fill="#000000" opacity="1.000000" stroke="none" 
	d="
M186.893951,567.215820 
	C178.598083,566.907593 174.295898,561.826660 171.285782,555.385193 
	C168.044357,548.448792 168.132782,541.100464 170.368729,533.985168 
	C172.400925,527.518372 176.258148,522.315002 183.796600,521.687195 
	C190.030884,521.167969 196.446808,525.907593 199.559265,533.372070 
	C202.801636,541.148132 203.431564,549.029480 199.709824,556.931580 
	C197.167709,562.329102 193.664139,566.448547 186.893951,567.215820 
z"/>
<path fill="#000000" opacity="1.000000" stroke="none" 
	d="
M513.453918,449.340454 
	C511.466339,460.352783 502.908813,467.776154 493.441010,466.874084 
	C482.799316,465.860168 476.641602,457.761658 475.911621,447.662079 
	C475.184784,437.606201 485.039459,427.380219 495.064606,426.861359 
	C504.478973,426.374115 513.141357,435.266510 513.627991,445.949524 
	C513.673096,446.940796 513.537170,447.940369 513.453918,449.340454 
z"/>
<path fill="#000000" opacity="1.000000" stroke="none" 
	d="
M468.530090,517.438232 
	C478.507294,527.798462 475.321777,540.009155 467.225372,546.990967 
	C461.502563,551.925964 453.743164,552.481506 447.708496,549.016907 
	C441.347961,545.365173 437.037567,537.059204 437.948029,530.142761 
	C439.208923,520.564514 445.911438,511.160461 459.113770,512.623718 
	C462.875580,513.040649 465.562256,514.968506 468.530090,517.438232 
z"/>
<path fill="#000000" opacity="1.000000" stroke="none" 
	d="
M519.173218,340.764038 
	C525.421448,346.737671 526.523254,353.665497 523.885559,361.167786 
	C521.338684,368.411407 515.645325,372.337616 508.366089,373.828400 
	C500.505951,375.438141 492.190277,369.911011 488.601227,361.086029 
	C485.898163,354.439636 489.605072,344.171631 496.356842,339.603180 
	C504.082764,334.375549 510.310211,334.630035 519.173218,340.764038 
z"/>
<path fill="#000000" opacity="1.000000" stroke="none" 
	d="
M304.149597,243.546539 
	C299.941467,244.680206 296.186768,245.711182 292.075562,244.545059 
	C286.026917,242.829376 282.329163,237.838013 282.999664,231.551407 
	C284.057922,221.629089 295.457458,209.624176 305.282898,207.784821 
	C311.065857,206.702271 316.225098,207.149384 320.029205,212.226257 
	C323.927094,217.428299 322.950745,222.801987 320.267548,228.093445 
	C316.778046,234.974899 311.644623,240.222214 304.149597,243.546539 
z"/>
<path fill="#000000" opacity="1.000000" stroke="none" 
	d="
M130.484390,466.638428 
	C133.477921,462.078674 137.194382,458.638397 142.440674,459.343567 
	C148.488403,460.156433 151.352722,464.908020 153.328506,470.398560 
	C156.995605,480.589142 154.931732,489.957001 149.788727,498.955444 
	C147.416000,503.106964 143.850861,505.748718 138.892548,505.635681 
	C133.805115,505.519775 130.730911,502.311676 128.707916,498.015900 
	C123.709724,487.402374 125.037796,477.066742 130.484390,466.638428 
z"/>
<path fill="#000000" opacity="1.000000" stroke="none" 
	d="
M382.840454,589.098145 
	C387.092712,580.849182 393.650574,576.766541 400.250702,577.948975 
	C407.847443,579.309937 414.362793,585.961426 415.667084,593.687378 
	C417.149719,602.469788 413.666809,610.552979 406.806458,614.251221 
	C401.040894,617.359253 393.429901,616.299011 388.264130,611.668152 
	C382.173828,606.208496 380.007111,597.505310 382.840454,589.098145 
z"/>
<path fill="#000000" opacity="1.000000" stroke="none" 
	d="
M140.050629,371.992310 
	C146.465591,374.919983 147.873978,380.646912 147.889786,386.232635 
	C147.917114,395.884583 145.043167,404.928680 138.787903,412.525635 
	C135.978806,415.937256 132.424942,418.760681 127.621651,417.742432 
	C122.980499,416.758514 121.056015,412.941711 120.105568,408.697388 
	C117.167564,395.577393 121.325706,384.472626 130.299164,375.017914 
	C132.661758,372.528656 135.918137,370.918610 140.050629,371.992310 
z"/>
<path fill="#000000" opacity="1.000000" stroke="none" 
	d="
M228.165985,230.974548 
	C231.762787,229.134659 235.065750,227.359924 238.869949,227.885773 
	C245.515274,228.804382 249.380676,235.862625 247.159561,243.300705 
	C244.053314,253.702866 237.648315,261.406189 227.654144,265.940277 
	C218.401230,270.138062 210.258621,264.590820 211.733444,254.590134 
	C213.241638,244.363342 219.099396,236.649063 228.165985,230.974548 
z"/>
<path fill="#000000" opacity="1.000000" stroke="none" 
	d="
M477.187408,285.933289 
	C471.041443,279.512726 469.768829,272.753418 473.215637,266.195862 
	C477.158905,258.693878 485.225800,254.545837 493.620300,255.703613 
	C500.502411,256.652771 506.193329,261.964386 507.296204,269.069946 
	C508.399933,276.181183 505.293427,281.792938 499.721405,285.904541 
	C493.072632,290.810638 485.958984,291.276581 478.714355,287.012329 
	C478.285339,286.759827 477.893982,286.443359 477.187408,285.933289 
z"/>
<path fill="#000000" opacity="1.000000" stroke="none" 
	d="
M341.659180,623.291138 
	C351.251678,633.087280 350.829956,647.350464 341.112183,653.793213 
	C337.994324,655.860291 334.727234,656.368042 331.148468,655.576599 
	C318.982788,652.886292 311.995667,636.126831 318.654663,625.584473 
	C323.768341,617.488647 332.533844,616.512695 341.659180,623.291138 
z"/>
<path fill="#000000" opacity="1.000000" stroke="none" 
	d="
M179.074677,312.882812 
	C175.338394,319.953583 170.881287,325.825195 163.545715,328.860504 
	C158.450821,330.968658 153.389999,328.562744 151.876862,323.318573 
	C148.241058,310.717743 159.363037,290.714386 172.008118,287.111664 
	C176.802979,285.745544 182.600006,291.043182 183.100479,297.280396 
	C183.543442,302.800873 181.303314,307.649994 179.074677,312.882812 
z"/>
<path fill="#000000" opacity="1.000000" stroke="none" 
	d="
M258.203247,667.125732 
	C248.738815,659.695984 245.422272,649.072998 249.547424,640.200134 
	C252.968872,632.840820 260.972137,630.531921 267.877930,634.911743 
	C276.136749,640.149780 280.225586,652.051514 276.924591,661.244812 
	C274.176208,668.899231 266.642731,671.395325 258.203247,667.125732 
z"/>
<path fill="#000000" opacity="1.000000" stroke="none" 
	d="
M463.461395,198.581207 
	C468.199921,204.752563 468.372711,210.283569 464.280396,216.255203 
	C459.336548,223.469498 451.411896,226.769989 443.067261,225.090073 
	C434.885803,223.442993 430.392883,214.395218 434.086273,206.351425 
	C438.246094,197.291946 452.693481,188.913010 463.461395,198.581207 
z"/>
<path fill="#000000" opacity="1.000000" stroke="none" 
	d="
M570.357361,432.910889 
	C572.434387,421.657135 577.876465,416.406342 586.802368,416.643280 
	C593.908081,416.831940 600.577393,423.042114 601.203308,430.052948 
	C602.027405,439.282837 596.631287,447.641754 588.902893,449.107117 
	C581.613037,450.489349 573.972412,445.647217 571.618713,438.110779 
	C571.125244,436.530731 570.783203,434.903381 570.357361,432.910889 
z"/>
<path fill="#000000" opacity="1.000000" stroke="none" 
	d="
M209.240463,639.217529 
	C209.078873,643.435486 209.757721,647.197266 207.566025,650.806335 
	C204.113541,656.491699 198.898819,658.128601 193.281754,654.691040 
	C185.644424,650.017212 179.228882,636.429321 183.711624,626.174500 
	C186.699707,619.338928 193.636337,617.103394 199.652130,621.476013 
	C205.498047,625.725159 208.478638,631.647034 209.240463,639.217529 
z"/>
<path fill="#000000" opacity="1.000000" stroke="none" 
	d="
M559.912964,502.746735 
	C565.274719,503.650299 569.269531,505.873962 572.134155,510.232300 
	C579.406494,521.296570 569.728271,534.640015 560.301758,535.171692 
	C552.580872,535.607056 545.439209,529.979004 543.920166,522.123291 
	C542.523865,514.902771 547.651306,506.090424 554.645325,503.822296 
	C556.214905,503.313263 557.877747,503.091705 559.912964,502.746735 
z"/>
<path fill="#000000" opacity="1.000000" stroke="none" 
	d="
M501.484711,600.234863 
	C498.246307,592.140259 502.065979,582.674133 509.577515,579.443298 
	C516.589783,576.427246 524.401062,579.540833 527.984314,586.780212 
	C531.600464,594.086060 528.466370,604.041260 521.296509,608.023560 
	C513.715332,612.234314 506.585541,609.542542 501.484711,600.234863 
z"/>
<path fill="#000000" opacity="1.000000" stroke="none" 
	d="
M586.959900,330.700684 
	C595.275879,329.607056 600.579468,331.880188 604.017395,337.800964 
	C607.335510,343.515320 606.996521,349.384521 603.047607,354.593109 
	C599.219360,359.642548 592.613098,361.684937 586.508118,359.706421 
	C580.015320,357.602234 575.473999,351.256653 575.661255,344.550079 
	C575.846924,337.902954 579.855408,332.824219 586.959900,330.700684 
z"/>
<path fill="#000000" opacity="1.000000" stroke="none" 
	d="
M412.411224,168.846115 
	C411.732971,179.220184 398.560394,188.315079 388.026459,186.198166 
	C381.533173,184.893280 378.096466,178.314743 380.466736,171.953003 
	C383.312592,164.314667 392.319946,157.880051 400.464172,157.667343 
	C407.841949,157.474655 411.886169,161.124466 412.411224,168.846115 
z"/>
<path fill="#000000" opacity="1.000000" stroke="none" 
	d="
M127.660660,593.136047 
	C128.363815,584.789612 131.598831,579.767944 136.407867,579.112244 
	C140.435608,578.563171 145.546509,582.693481 148.323090,589.006287 
	C151.425369,596.059570 152.711456,603.283447 149.629868,610.737549 
	C146.460495,618.403992 139.303421,619.549744 134.093903,613.038025 
	C129.588501,607.406311 127.343910,600.887512 127.660660,593.136047 
z"/>
<path fill="#000000" opacity="1.000000" stroke="none" 
	d="
M453.777893,640.480530 
	C459.955322,638.009277 465.358246,639.467590 469.605804,644.506653 
	C474.039795,649.766907 474.538605,657.276489 470.839417,663.077942 
	C467.585541,668.180969 461.583801,670.573792 456.162781,668.929260 
	C450.346680,667.164917 446.069000,661.304871 445.727234,655.115173 
	C445.370575,648.655884 447.798126,643.833557 453.777893,640.480530 
z"/>
<path fill="#000000" opacity="1.000000" stroke="none" 
	d="
M566.427002,254.162537 
	C574.920593,249.572723 583.745056,252.184586 587.882019,260.212738 
	C591.200439,266.652191 588.240112,274.714325 581.260437,278.245880 
	C574.915283,281.456360 566.360718,279.113678 562.274963,273.046692 
	C557.820312,266.431946 558.998474,260.682831 566.427002,254.162537 
z"/>
<path fill="#000000" opacity="1.000000" stroke="none" 
	d="
M349.244324,153.091278 
	C348.297974,163.782410 336.206055,174.013733 325.949799,173.222107 
	C318.995728,172.685379 316.023743,168.138702 318.264557,161.464935 
	C320.797211,153.922134 332.468170,145.269867 340.451019,145.017014 
	C344.800415,144.879257 348.231476,147.868591 349.244324,153.091278 
z"/>
<path fill="#000000" opacity="1.000000" stroke="none" 
	d="
M109.200684,542.652222 
	C107.594154,547.298401 106.333427,552.313232 100.904472,552.565491 
	C95.122192,552.834045 93.145432,547.750366 91.823914,543.356567 
	C89.637856,536.088318 89.778587,528.549866 91.949921,521.260803 
	C93.006554,517.713623 95.072853,514.190369 99.374374,514.139832 
	C103.517731,514.091125 105.787308,517.239868 107.426285,520.691101 
	C109.930748,525.964783 110.102264,531.593994 109.770905,537.274597 
	C109.674187,538.932861 109.424957,540.582275 109.200684,542.652222 
z"/>
<path fill="#000000" opacity="1.000000" stroke="none" 
	d="
M406.100037,685.730835 
	C413.000366,692.035461 414.511688,701.036865 410.055511,707.417358 
	C408.014252,710.340088 405.238800,711.963745 401.683685,712.182922 
	C395.762817,712.547913 389.878326,707.694824 387.680237,700.676941 
	C385.754028,694.527161 387.887207,687.903625 392.787781,684.779236 
	C397.304749,681.899414 401.613953,682.410278 406.100037,685.730835 
z"/>
<path fill="#000000" opacity="1.000000" stroke="none" 
	d="
M93.952896,451.721466 
	C92.993362,457.284424 91.410896,462.170074 87.966110,466.203308 
	C84.676796,470.054504 80.640991,469.692657 78.394325,465.151947 
	C74.879997,458.049316 75.950829,450.548798 77.522858,443.229614 
	C78.347687,439.389313 79.602852,435.546082 82.293816,432.391663 
	C86.287186,427.710632 90.404037,428.162079 93.082657,433.756866 
	C95.810394,439.454254 95.487076,445.358032 93.952896,451.721466 
z"/>
<path fill="#000000" opacity="1.000000" stroke="none" 
	d="
M270.001129,158.756012 
	C273.474274,157.357819 276.301849,157.813919 278.578979,160.265228 
	C281.046692,162.921692 280.800903,165.880386 279.329132,169.027039 
	C275.169159,177.921066 268.773499,184.155518 259.065186,186.642700 
	C255.886642,187.457001 253.046143,186.954880 250.965286,184.332962 
	C248.957672,181.803299 249.570267,179.028595 250.828537,176.358444 
	C254.756607,168.022766 260.929138,162.086227 270.001129,158.756012 
z"/>
<path fill="#000000" opacity="1.000000" stroke="none" 
	d="
M532.058716,210.098480 
	C527.017334,204.968170 526.091797,201.021774 528.522339,196.011963 
	C530.971863,190.963257 537.481079,187.281921 542.918152,187.870255 
	C548.962036,188.524277 553.551941,192.182297 554.883667,197.600510 
	C556.047913,202.336899 554.070068,206.114700 550.686279,209.166946 
	C546.730835,212.734833 542.090332,214.185318 536.840149,212.477310 
	C535.277039,211.968781 533.842407,211.065445 532.058716,210.098480 
z"/>
<path fill="#000000" opacity="1.000000" stroke="none" 
	d="
M338.311615,737.040161 
	C329.391663,731.624695 325.901489,723.494324 328.794983,715.474854 
	C330.823944,709.851440 336.215698,707.557861 341.636993,710.012146 
	C350.012939,713.803894 354.341156,723.164856 351.332642,730.981567 
	C349.117432,736.737183 344.764954,738.878845 338.311615,737.040161 
z"/>
<path fill="#000000" opacity="1.000000" stroke="none" 
	d="
M207.091568,213.971909 
	C203.165543,219.276138 198.851044,223.612946 192.994049,226.086105 
	C188.106522,228.149918 184.785934,225.845947 184.827621,220.514206 
	C184.889542,212.597824 196.849319,197.773865 204.653336,195.940567 
	C209.605164,194.777313 212.932602,197.769577 212.150803,202.821426 
	C211.526566,206.855179 209.395004,210.266769 207.091568,213.971909 
z"/>
<path fill="#000000" opacity="1.000000" stroke="none" 
	d="
M109.550026,343.751770 
	C110.419037,354.978180 106.826096,364.378967 100.140594,372.688385 
	C98.589256,374.616547 96.655914,376.400116 93.729881,375.601746 
	C90.936485,374.839569 90.672379,372.295135 90.061707,370.114319 
	C87.859642,362.250458 94.635574,344.228485 101.471466,339.551971 
	C105.579041,336.741943 107.830124,337.812317 109.550026,343.751770 
z"/>
<path fill="#000000" opacity="1.000000" stroke="none" 
	d="
M282.263000,746.281738 
	C272.421173,742.591736 266.661041,733.291992 268.661133,724.940491 
	C270.149689,718.724976 275.528625,716.225647 281.263306,719.084900 
	C288.677155,722.781311 293.153503,732.037842 291.083374,740.044800 
	C290.018646,744.163025 287.140137,746.460571 282.263000,746.281738 
z"/>
<path fill="#000000" opacity="1.000000" stroke="none" 
	d="
M147.343216,278.218262 
	C144.393143,282.881622 141.611862,287.209839 137.091324,290.016785 
	C135.008850,291.309875 132.773239,292.064209 130.564926,290.625549 
	C128.417465,289.226532 127.728271,286.875244 128.183517,284.482910 
	C130.134933,274.228180 134.740189,265.436462 143.111588,258.946259 
	C145.041794,257.449799 147.423248,255.826065 149.879074,257.841095 
	C152.206299,259.750610 152.894714,262.315186 152.197083,265.433899 
	C151.213303,269.831818 149.892319,274.045288 147.343216,278.218262 
z"/>
<path fill="#000000" opacity="1.000000" stroke="none" 
	d="
M655.295105,502.127380 
	C647.345703,498.099030 647.024841,488.832642 649.780029,483.815643 
	C652.267029,479.287048 656.872620,476.971985 661.902161,477.842438 
	C666.571533,478.650513 669.782654,481.530945 671.059387,486.027283 
	C672.705750,491.825134 670.623657,498.153931 666.449158,500.833740 
	C663.124329,502.968140 659.589417,504.343658 655.295105,502.127380 
z"/>
<path fill="#000000" opacity="1.000000" stroke="none" 
	d="
M495.248688,162.721512 
	C489.898712,162.233109 486.234222,159.892746 485.096497,154.935394 
	C483.941895,149.904617 486.786896,146.301575 490.609802,143.615845 
	C495.265137,140.345291 500.180389,138.518951 505.811096,141.838013 
	C509.443024,143.978821 511.880310,146.981598 511.280334,151.017960 
	C510.432678,156.720474 506.476593,160.313461 501.039948,162.049042 
	C499.337952,162.592377 497.448669,162.549088 495.248688,162.721512 
z"/>
<path fill="#000000" opacity="1.000000" stroke="none" 
	d="
M670.010376,411.273438 
	C663.403809,405.843170 661.963623,401.316101 664.605225,395.074036 
	C667.108276,389.159393 672.550171,386.541199 678.364075,388.454498 
	C684.054260,390.327057 688.181641,397.428680 686.928955,403.191498 
	C685.664062,409.010498 680.298828,413.179932 674.627930,412.606934 
	C673.171753,412.459808 671.760315,411.869019 670.010376,411.273438 
z"/>
<path fill="#000000" opacity="1.000000" stroke="none" 
	d="
M218.471527,735.746460 
	C213.046326,730.664062 209.419907,725.087341 209.747971,717.676392 
	C210.039688,711.086182 214.816116,708.123047 220.730347,710.803223 
	C226.900330,713.599365 232.795349,723.988464 231.970917,730.612854 
	C231.072754,737.829407 225.661957,740.028687 218.471527,735.746460 
z"/>
<path fill="#000000" opacity="1.000000" stroke="none" 
	d="
M615.771179,567.060425 
	C622.891418,557.845886 632.384583,558.387390 636.312622,567.873169 
	C638.500610,573.156860 636.743530,579.310974 632.026550,582.884888 
	C627.601318,586.237793 622.333435,586.155457 618.273071,582.670044 
	C613.542908,578.609497 612.634705,573.399658 615.771179,567.060425 
z"/>
<path fill="#000000" opacity="1.000000" stroke="none" 
	d="
M567.528076,650.891479 
	C566.440979,646.916687 566.149475,643.337830 568.028259,639.909607 
	C570.626770,635.168091 575.798706,632.583130 580.468628,633.671936 
	C584.668945,634.651245 588.586853,639.214905 589.043030,643.659546 
	C589.540955,648.510254 585.550537,655.065002 580.721558,656.698792 
	C575.966553,658.307617 571.921875,656.870422 568.815979,652.910095 
	C568.408081,652.390076 568.081055,651.806824 567.528076,650.891479 
z"/>
<path fill="#000000" opacity="1.000000" stroke="none" 
	d="
M659.178345,309.457153 
	C663.527832,302.910126 667.769104,301.476379 673.647522,304.274261 
	C679.164246,306.900024 682.258789,313.045349 680.650208,318.180542 
	C678.739624,324.279938 673.032043,327.622833 667.508789,325.877258 
	C660.438171,323.642700 656.719788,316.611603 659.178345,309.457153 
z"/>
<path fill="#000000" opacity="1.000000" stroke="none" 
	d="
M155.633728,693.018799 
	C155.532120,689.024536 156.386749,685.754028 159.969788,684.384949 
	C163.473602,683.046204 166.027420,685.557495 168.232224,687.723511 
	C172.907501,692.316650 174.970596,698.299866 175.836502,704.600830 
	C176.281738,707.840637 174.994385,711.033447 171.976608,712.679016 
	C168.871674,714.372253 166.178436,712.591980 163.929321,710.476746 
	C159.030426,705.869629 156.249588,700.177856 155.633728,693.018799 
z"/>
<path fill="#000000" opacity="1.000000" stroke="none" 
	d="
M460.005035,122.921471 
	C456.039337,127.987022 451.103180,130.470566 445.065735,130.262985 
	C438.021423,130.020737 434.891113,123.961197 438.479523,117.884300 
	C441.722351,112.392738 449.277313,108.919853 455.639038,109.996407 
	C461.516663,110.991035 463.338776,116.008026 460.005035,122.921471 
z"/>
<path fill="#000000" opacity="1.000000" stroke="none" 
	d="
M531.947632,701.055176 
	C532.893188,707.687622 529.712646,713.636108 524.784241,715.059631 
	C519.714478,716.523987 514.998779,714.527283 512.583374,709.893433 
	C509.487885,703.954895 512.113281,696.387756 518.242310,693.582947 
	C523.545715,691.155945 529.102905,694.070923 531.947632,701.055176 
z"/>
<path fill="#000000" opacity="1.000000" stroke="none" 
	d="
M123.167480,651.146057 
	C125.701797,655.811584 125.299026,660.495605 125.231728,665.144348 
	C125.194351,667.725342 124.148964,669.731750 121.830444,670.789795 
	C119.201202,671.989624 117.310860,670.261047 115.720787,668.562988 
	C110.612442,663.107849 108.334755,656.423401 107.944908,649.092102 
	C107.765686,645.721497 108.981903,642.549316 112.322060,641.368774 
	C115.721687,640.167297 117.883125,642.915771 119.758736,645.205750 
	C121.108879,646.854126 121.975082,648.898987 123.167480,651.146057 
z"/>
<path fill="#000000" opacity="1.000000" stroke="none" 
	d="
M646.651245,227.533447 
	C649.336121,228.084595 651.367188,229.165359 653.141479,230.707611 
	C657.706909,234.675934 658.564087,240.083496 655.337891,244.360611 
	C652.114502,248.633850 645.804749,249.746140 641.070007,246.875656 
	C636.679810,244.214081 634.101440,239.279449 635.020935,235.298630 
	C636.123596,230.524200 639.915833,227.895004 646.651245,227.533447 
z"/>
<path fill="#000000" opacity="1.000000" stroke="none" 
	d="
M392.783508,114.675011 
	C389.225922,114.582466 386.414001,113.613159 385.174072,110.431084 
	C383.889862,107.135262 385.875305,104.657585 387.901093,102.417473 
	C391.448273,98.495064 395.816681,95.871536 401.056580,94.895706 
	C404.444611,94.264755 407.350220,95.237274 409.352203,98.136627 
	C411.278748,100.926697 409.475006,103.276527 408.022705,105.425690 
	C404.474762,110.675873 399.159851,113.235245 392.783508,114.675011 
z"/>
<path fill="#000000" opacity="1.000000" stroke="none" 
	d="
M72.907928,599.745056 
	C71.705345,594.615845 70.912849,589.879883 72.544876,585.125671 
	C74.256371,580.139893 77.995262,579.125000 80.844185,583.359680 
	C85.835335,590.778503 87.563499,599.095093 85.017151,607.930420 
	C84.503418,609.712952 83.389740,611.393860 81.452507,611.774780 
	C79.119553,612.233582 77.898750,610.360413 76.745186,608.747803 
	C74.893463,606.159119 73.793381,603.215271 72.907928,599.745056 
z"/>
<path fill="#000000" opacity="1.000000" stroke="none" 
	d="
M455.455109,744.038818 
	C457.844055,739.820557 461.159698,737.687256 465.534302,738.780090 
	C469.391754,739.743713 472.436371,742.349609 473.128845,746.495605 
	C473.916779,751.213074 473.615845,755.892334 469.125671,758.976990 
	C463.877411,762.582458 455.780060,758.520996 454.851746,751.785522 
	C454.515045,749.342529 454.427673,746.822876 455.455109,744.038818 
z"/>
<path fill="#000000" opacity="1.000000" stroke="none" 
	d="
M352.579071,96.359802 
	C354.649017,98.528152 354.343842,100.495140 353.107330,102.529373 
	C348.976685,109.324982 342.599365,112.975365 335.161438,114.751404 
	C331.207916,115.695427 328.088989,112.239182 329.021851,108.615295 
	C330.638519,102.334969 344.201874,93.838257 350.540100,95.177589 
	C351.158325,95.308220 351.704681,95.778862 352.579071,96.359802 
z"/>
<path fill="#000000" opacity="1.000000" stroke="none" 
	d="
M600.602173,177.918823 
	C599.134277,171.134537 601.245178,167.164749 606.776123,165.595261 
	C611.742126,164.186081 617.910400,167.329391 619.793884,172.228912 
	C622.118958,178.277390 616.578552,184.747864 609.773132,183.829376 
	C605.999634,183.320084 602.809265,181.700699 600.602173,177.918823 
z"/>
<path fill="#000000" opacity="1.000000" stroke="none" 
	d="
M402.163513,773.109863 
	C407.902802,770.092224 411.985687,771.002502 415.332123,775.713989 
	C418.422333,780.064697 418.209412,786.545959 414.889160,789.911194 
	C412.169525,792.667786 409.208862,792.985352 405.929352,790.942017 
	C399.651947,787.030701 398.022705,779.995728 402.163513,773.109863 
z"/>
<path fill="#000000" opacity="1.000000" stroke="none" 
	d="
M51.607410,519.389771 
	C51.970837,515.691956 51.311897,512.272156 53.114967,509.228760 
	C54.046711,507.656097 54.869453,505.882599 57.088955,505.947754 
	C59.033009,506.004852 59.761238,507.574097 60.696705,508.978485 
	C62.071049,511.041656 62.396114,513.285400 62.235886,515.637207 
	C61.822495,521.705017 63.480721,527.940125 60.814049,533.825012 
	C60.062088,535.484436 59.359337,537.457092 57.210136,537.502319 
	C55.045380,537.547852 54.382404,535.606323 53.524452,533.957825 
	C51.182159,529.457336 51.674248,524.607483 51.607410,519.389771 
z"/>
<path fill="#000000" opacity="1.000000" stroke="none" 
	d="
M280.396759,114.266251 
	C283.084930,112.904884 285.446014,111.696739 287.868042,110.626556 
	C289.472870,109.917473 291.127411,109.817856 292.463379,111.266014 
	C293.757416,112.668709 293.583374,114.354973 293.095093,115.977325 
	C291.477905,121.350471 279.626709,130.676224 274.128906,130.968292 
	C270.037689,131.185638 268.300781,128.531250 270.241608,124.887154 
	C272.563660,120.527199 276.135742,117.309196 280.396759,114.266251 
z"/>
<path fill="#000000" opacity="1.000000" stroke="none" 
	d="
M364.808075,802.222595 
	C364.560425,806.392944 363.117554,809.448364 359.061401,810.259827 
	C355.483429,810.975647 350.518677,807.235107 348.415497,802.568970 
	C346.294952,797.864258 347.414764,792.322937 350.841064,790.565491 
	C354.313477,788.784302 358.892578,790.523682 361.739777,795.057922 
	C363.041931,797.131592 363.763489,799.569763 364.808075,802.222595 
z"/>
<path fill="#000000" opacity="1.000000" stroke="none" 
	d="
M57.188202,446.985870 
	C56.009323,449.360321 55.258865,452.183929 52.357971,451.539337 
	C49.829311,450.977417 49.832836,448.164307 49.764603,446.117249 
	C49.503445,438.282288 50.331173,430.577881 53.519691,423.291626 
	C54.342674,421.410980 55.343582,419.530914 57.820854,419.958588 
	C60.457809,420.413849 60.344872,422.739960 60.453861,424.681030 
	C60.875843,432.196075 60.185738,439.568665 57.188202,446.985870 
z"/>
<path fill="#000000" opacity="1.000000" stroke="none" 
	d="
M576.990601,125.822937 
	C576.326843,130.960205 572.794495,132.926453 568.841919,133.897369 
	C564.710327,134.912231 561.380493,132.872131 559.051025,129.505051 
	C557.152771,126.761284 557.225159,123.814217 559.469116,121.247696 
	C562.252502,118.064346 565.788818,116.009453 570.032593,117.416786 
	C573.697205,118.632065 577.011963,120.750336 576.990601,125.822937 
z"/>
<path fill="#000000" opacity="1.000000" stroke="none" 
	d="
M298.443878,810.391113 
	C297.834290,809.366211 297.378632,808.667542 297.054413,807.912476 
	C294.651154,802.315186 295.112549,798.778931 298.466797,796.829651 
	C301.370483,795.142151 305.805603,796.922363 309.030151,801.124268 
	C311.187653,803.935730 312.669678,806.957764 312.457123,810.687073 
	C312.146729,816.133728 308.333221,818.274902 303.644958,815.459778 
	C301.634460,814.252563 300.020569,812.594849 298.443878,810.391113 
z"/>
<path fill="#000000" opacity="1.000000" stroke="none" 
	d="
M231.112946,148.666809 
	C227.499786,154.216354 223.365585,158.757721 218.014221,162.015717 
	C215.827133,163.347214 213.227188,165.557129 210.773132,163.208099 
	C208.279541,160.821228 210.468109,158.279755 211.780823,156.025131 
	C214.968170,150.550735 219.763443,146.710953 224.968994,143.328140 
	C226.811310,142.130936 228.956223,140.883163 230.972519,142.415054 
	C233.070694,144.009155 232.270752,146.288696 231.112946,148.666809 
z"/>
<path fill="#000000" opacity="1.000000" stroke="none" 
	d="
M759.354370,458.672363 
	C759.335632,464.719330 756.684814,468.938507 752.289429,469.556244 
	C748.625488,470.071228 745.980469,467.916779 744.161011,464.903595 
	C741.923584,461.198151 742.812439,456.048401 746.051270,453.029663 
	C750.678345,448.717072 756.000183,450.848022 759.354370,458.672363 
z"/>
<path fill="#000000" opacity="1.000000" stroke="none" 
	d="
M735.014648,546.313232 
	C734.931763,547.842712 734.888000,549.014709 734.575073,550.109741 
	C733.237183,554.791565 729.419250,558.009094 725.728088,557.146118 
	C721.707092,556.206177 718.999756,553.732483 718.779602,549.236206 
	C718.538330,544.307312 721.456909,539.860779 725.568726,538.971680 
	C729.555786,538.109680 732.835693,540.544250 735.014648,546.313232 
z"/>
<path fill="#000000" opacity="1.000000" stroke="none" 
	d="
M244.604584,800.185120 
	C242.883209,797.079773 241.787094,794.187866 244.725906,791.767700 
	C247.743484,789.282532 250.624603,790.736511 253.233109,792.826111 
	C257.124603,795.943604 259.744293,799.834534 260.172974,804.922363 
	C260.360962,807.153992 259.950989,809.254761 257.782074,810.522766 
	C255.675476,811.754456 253.928848,810.601746 252.275497,809.516541 
	C248.880646,807.288452 246.254730,804.367554 244.604584,800.185120 
z"/>
<path fill="#000000" opacity="1.000000" stroke="none" 
	d="
M81.255905,339.807587 
	C79.848267,347.145325 77.387856,353.647675 73.808311,359.694489 
	C72.911674,361.209167 71.835419,363.270264 69.708611,362.776459 
	C67.074799,362.164978 67.759666,359.631226 67.747757,357.748047 
	C67.701012,350.354828 70.981812,343.944550 74.094673,337.546814 
	C75.126389,335.426331 76.401237,332.407837 79.444435,333.269531 
	C82.425148,334.113556 80.985031,337.200439 81.255905,339.807587 
z"/>
<path fill="#000000" opacity="1.000000" stroke="none" 
	d="
M757.246338,362.332153 
	C761.486572,365.104980 764.768555,368.227295 763.502991,373.433319 
	C762.398010,377.978882 758.239441,380.214447 753.921143,379.102081 
	C750.357727,378.184143 746.616272,372.622101 747.158447,369.048676 
	C747.885803,364.254822 751.261597,361.874542 757.246338,362.332153 
z"/>
<path fill="#000000" opacity="1.000000" stroke="none" 
	d="
M105.485657,270.711945 
	C108.230713,265.528473 110.752586,260.642334 114.685783,256.719727 
	C115.898209,255.510574 117.110336,253.557404 119.256660,254.875290 
	C121.125946,256.023041 120.948318,257.886261 120.374557,259.770569 
	C118.069321,267.341431 114.269737,274.060974 108.918465,279.883057 
	C107.652153,281.260742 106.084068,282.562073 104.162109,281.164215 
	C102.392761,279.877319 102.746582,277.971497 103.400482,276.168793 
	C104.021149,274.457703 104.669525,272.756683 105.485657,270.711945 
z"/>
<path fill="#000000" opacity="1.000000" stroke="none" 
	d="
M157.066376,202.157135 
	C160.051422,197.884674 163.262848,194.298981 167.166061,191.411316 
	C168.472076,190.445114 170.112671,189.501312 171.744537,190.720505 
	C173.400101,191.957367 172.891525,193.730576 172.288605,195.291397 
	C169.322876,202.969086 163.905838,208.745743 157.627151,213.797241 
	C156.258743,214.898163 154.574921,215.245575 153.063980,213.907303 
	C151.687256,212.687943 151.995667,211.262878 152.783539,209.841049 
	C154.146622,207.381195 155.500824,204.916412 157.066376,202.157135 
z"/>
<path fill="#000000" opacity="1.000000" stroke="none" 
	d="
M195.584991,785.269897 
	C194.395752,782.863159 193.296478,780.808472 192.445877,778.655518 
	C191.566544,776.429871 192.041031,774.413391 193.959930,772.827271 
	C195.913895,771.212158 197.688599,772.074219 199.438156,773.193787 
	C204.843048,776.652710 207.377075,782.083862 208.907623,787.929626 
	C209.825348,791.434692 206.335846,793.831665 202.888535,792.396790 
	C199.657303,791.051880 197.783417,788.237183 195.584991,785.269897 
z"/>
<path fill="#000000" opacity="1.000000" stroke="none" 
	d="
M677.805847,628.858582 
	C677.883484,627.637573 677.936218,626.800720 678.153503,626.008972 
	C679.402161,621.458252 682.352112,618.711914 687.118896,618.930969 
	C691.136780,619.115662 693.259644,622.027100 694.000427,625.743958 
	C694.706909,629.288391 691.535339,634.230286 687.899780,635.733643 
	C683.313538,637.630188 679.849976,635.398804 677.805847,628.858582 
z"/>
<path fill="#000000" opacity="1.000000" stroke="none" 
	d="
M531.482666,87.644089 
	C532.559753,92.052422 530.636475,94.896904 527.306641,96.569229 
	C523.799805,98.330429 519.931274,98.855598 516.379333,96.499046 
	C512.860352,94.164375 513.179871,89.786087 516.960144,86.339996 
	C521.361206,82.328003 527.379517,82.723991 531.482666,87.644089 
z"/>
<path fill="#000000" opacity="1.000000" stroke="none" 
	d="
M155.911133,750.288696 
	C156.915024,752.798218 158.172333,754.813171 158.220932,757.241394 
	C158.256943,759.041504 157.700623,760.565063 156.188660,761.548828 
	C154.413635,762.703735 153.019409,761.560059 151.712128,760.510010 
	C147.408875,757.053467 144.797028,752.421387 143.156311,747.295227 
	C142.467209,745.142151 142.193665,742.500000 144.519363,740.907410 
	C147.073349,739.158447 148.902832,741.162292 150.657822,742.624329 
	C153.005112,744.579773 154.561722,747.141541 155.911133,750.288696 
z"/>
<path fill="#000000" opacity="1.000000" stroke="none" 
	d="
M628.676147,690.651001 
	C633.306274,686.964050 637.931091,686.879883 640.306641,690.143188 
	C642.853210,693.641296 641.301880,700.350403 637.359131,702.890320 
	C633.437500,705.416626 629.078796,704.262634 626.828430,700.101929 
	C624.952087,696.632690 626.254272,693.716797 628.676147,690.651001 
z"/>
<path fill="#000000" opacity="1.000000" stroke="none" 
	d="
M747.391724,292.035736 
	C744.594360,295.698242 741.334045,296.100647 737.929749,294.092621 
	C734.223389,291.906464 732.067505,288.535431 733.018250,284.110626 
	C733.714294,280.871643 736.161133,279.072388 739.544312,279.096863 
	C743.421570,279.124908 747.641357,282.965729 748.132507,286.799805 
	C748.342590,288.439789 748.319336,290.113007 747.391724,292.035736 
z"/>
<path fill="#000000" opacity="1.000000" stroke="none" 
	d="
M571.648438,747.670166 
	C574.906128,744.749695 578.152039,744.226929 581.318176,746.840454 
	C584.286499,749.290710 584.421997,752.541687 582.847534,755.856628 
	C580.792236,760.184204 576.025757,762.079895 572.616211,760.036865 
	C568.664978,757.669250 568.192139,753.037842 571.648438,747.670166 
z"/>
<path fill="#000000" opacity="1.000000" stroke="none" 
	d="
M99.194809,696.489502 
	C100.771835,694.800354 102.078720,695.356323 103.429184,696.220520 
	C107.509315,698.831665 112.137642,709.916504 111.170647,714.767700 
	C110.623734,717.511353 109.215721,718.572632 106.612625,717.051208 
	C101.948883,714.325500 97.411423,702.221008 99.194809,696.489502 
z"/>
<path fill="#000000" opacity="1.000000" stroke="none" 
	d="
M702.946533,211.211212 
	C704.226196,206.689743 707.252258,205.319977 711.067200,206.374435 
	C714.988586,207.458298 717.712158,210.243210 718.069824,214.467575 
	C718.427734,218.694916 713.462463,221.925018 709.283813,220.172806 
	C705.597046,218.626846 702.914795,216.036179 702.946533,211.211212 
z"/>
<path fill="#000000" opacity="1.000000" stroke="none" 
	d="
M473.818726,65.622963 
	C476.742157,63.488350 479.594147,62.435104 482.915680,62.748833 
	C487.227722,63.156120 489.168427,66.438354 486.795959,69.994186 
	C484.247864,73.813240 480.344696,75.635468 475.770721,75.545197 
	C473.799530,75.506287 471.695770,74.847923 470.866577,72.735222 
	C469.691437,69.741127 471.492798,67.714546 473.818726,65.622963 
z"/>
<path fill="#000000" opacity="1.000000" stroke="none" 
	d="
M434.716980,53.567879 
	C436.521942,53.129391 437.967072,52.554775 439.414764,52.548325 
	C442.914642,52.532722 444.471130,55.216835 442.904877,58.278049 
	C441.151581,61.704800 433.036102,65.801300 429.230438,65.180580 
	C425.796509,64.620491 424.710541,61.967529 426.772247,59.026642 
	C428.649139,56.349342 431.308502,54.728642 434.716980,53.567879 
z"/>
<path fill="#000000" opacity="1.000000" stroke="none" 
	d="
M72.550888,650.697998 
	C72.740547,653.935364 74.467911,657.922058 70.727524,658.844788 
	C67.098312,659.740051 66.407600,655.497192 65.308517,652.907593 
	C63.757969,649.254395 62.508289,645.456177 62.740440,641.375671 
	C62.841221,639.604248 62.469833,637.425293 64.940651,637.006042 
	C67.108406,636.638245 68.195084,638.343811 69.048294,639.970337 
	C70.748840,643.212341 71.807579,646.688171 72.550888,650.697998 
z"/>
<path fill="#000000" opacity="1.000000" stroke="none" 
	d="
M668.336243,157.761536 
	C664.972046,155.202377 661.561279,152.815033 664.293701,148.307388 
	C666.150513,145.244461 669.027710,144.040314 672.349426,146.177200 
	C675.260864,148.050140 678.824036,150.217987 677.516296,154.233215 
	C676.241394,158.147583 672.872437,159.695435 668.336243,157.761536 
z"/>
<path fill="#000000" opacity="1.000000" stroke="none" 
	d="
M469.702576,837.600586 
	C464.755310,839.862732 462.860443,836.830750 461.027130,833.419861 
	C458.977814,829.607056 461.127502,827.029907 463.666321,824.873840 
	C465.668884,823.173157 468.050964,823.699585 469.929657,825.523804 
	C472.287994,827.813965 473.873108,830.452515 472.633545,833.894897 
	C472.130432,835.292175 471.311188,836.553467 469.702576,837.600586 
z"/>
<path fill="#000000" opacity="1.000000" stroke="none" 
	d="
M379.548889,65.153793 
	C377.060852,63.110085 377.553131,61.136436 379.304779,59.448391 
	C382.819611,56.061134 387.037354,53.863316 391.826660,52.876595 
	C393.308777,52.571236 394.869965,52.656399 395.757080,54.202427 
	C396.736389,55.909111 396.156494,57.492718 394.835632,58.654922 
	C390.559052,62.417763 385.747009,65.074409 379.548889,65.153793 
z"/>
<path fill="#000000" opacity="1.000000" stroke="none" 
	d="
M39.859116,576.528687 
	C39.811798,573.110962 39.765945,570.139404 39.837856,567.170593 
	C39.871223,565.793152 40.316013,564.483826 41.925533,564.224854 
	C43.579952,563.958557 44.271358,565.164551 44.752033,566.444946 
	C47.005474,572.447327 46.706596,578.726868 46.622078,584.964539 
	C46.607174,586.064514 46.151600,587.399597 44.692516,587.467224 
	C43.156170,587.538452 42.091919,586.477844 41.970978,585.101074 
	C41.721199,582.257568 40.700417,579.655640 39.859116,576.528687 
z"/>
<path fill="#000000" opacity="1.000000" stroke="none" 
	d="
M340.995422,62.987507 
	C344.692535,63.453117 345.297852,65.188553 343.189453,67.647812 
	C339.648499,71.777931 334.928284,74.190475 329.906097,75.989891 
	C328.544586,76.477715 326.819122,76.653465 325.888245,75.080276 
	C324.923767,73.450340 326.111176,72.298882 327.173706,71.216301 
	C330.966736,67.351700 335.744598,65.106827 340.995422,62.987507 
z"/>
<path fill="#000000" opacity="1.000000" stroke="none" 
	d="
M414.516052,850.740662 
	C416.520172,847.711060 419.006226,847.327271 421.510040,849.083496 
	C424.337708,851.066772 426.237610,853.916504 425.360718,857.526489 
	C424.344482,861.710205 420.167114,862.672729 416.927979,859.638672 
	C414.453186,857.320496 413.464417,854.476562 414.516052,850.740662 
z"/>
<path fill="#000000" opacity="1.000000" stroke="none" 
	d="
M624.076721,109.070869 
	C620.577637,106.553490 619.400452,103.510078 622.028198,100.370827 
	C624.658142,97.229004 628.026550,98.113358 630.931763,100.333870 
	C633.002136,101.916328 634.634766,104.005302 633.103333,106.758995 
	C631.110657,110.341995 627.898071,110.430702 624.076721,109.070869 
z"/>
<path fill="#000000" opacity="1.000000" stroke="none" 
	d="
M277.598022,96.798141 
	C275.109955,97.858093 272.615601,100.806282 270.697327,98.203888 
	C268.765472,95.583122 272.220245,94.084686 273.848572,92.421303 
	C276.425232,89.789146 279.423065,87.658882 282.756104,86.172043 
	C284.357452,85.457695 286.606598,83.722046 288.038147,86.181061 
	C289.223938,88.217911 287.210907,89.491119 285.828369,90.597641 
	C283.244415,92.665741 280.556946,94.604477 277.598022,96.798141 
z"/>
<path fill="#000000" opacity="1.000000" stroke="none" 
	d="
M36.484425,504.040558 
	C34.524315,506.102875 33.032490,505.707367 32.961552,503.368561 
	C32.771378,497.098724 32.884632,490.816284 33.029148,484.542358 
	C33.060425,483.184570 34.026001,481.902191 35.512836,481.838379 
	C37.593071,481.749176 37.784073,483.598145 37.818180,485.010376 
	C37.969383,491.270905 38.558247,497.571869 36.484425,504.040558 
z"/>
<path fill="#000000" opacity="1.000000" stroke="none" 
	d="
M214.151733,130.228516 
	C217.936829,126.213425 221.788651,122.829178 226.172394,120.084969 
	C227.142685,119.477570 228.213623,118.664848 229.311325,119.730804 
	C230.537033,120.921082 229.982224,122.190857 229.086914,123.271751 
	C225.245407,127.909515 220.559753,131.593842 215.649902,135.014008 
	C214.562393,135.771545 213.252274,135.877960 212.530029,134.793427 
	C211.326904,132.986816 212.904465,131.762665 214.151733,130.228516 
z"/>
<path fill="#000000" opacity="1.000000" stroke="none" 
	d="
M374.168274,862.265259 
	C379.652679,863.583374 382.484375,866.822205 382.312927,870.936340 
	C382.217285,873.231934 381.228302,875.041687 378.908203,874.994324 
	C375.084808,874.916382 373.339417,872.008179 371.841248,868.914856 
	C370.451263,866.044922 370.759003,863.828125 374.168274,862.265259 
z"/>
<path fill="#000000" opacity="1.000000" stroke="none" 
	d="
M334.195557,866.759277 
	C337.252289,868.903137 339.562622,871.210205 340.685577,874.517822 
	C341.284821,876.283020 341.101562,877.873108 339.575500,878.976624 
	C338.221802,879.955505 336.698700,879.643250 335.363922,878.774658 
	C332.479431,876.897583 330.250427,874.328735 329.446625,871.023071 
	C328.622894,867.635498 330.380615,866.043030 334.195557,866.759277 
z"/>
<path fill="#000000" opacity="1.000000" stroke="none" 
	d="
M290.457153,862.983398 
	C294.041534,864.855713 295.972595,867.728149 297.587982,870.857178 
	C298.339050,872.312012 298.303955,873.742676 297.072327,874.969360 
	C295.693817,876.342346 294.390503,875.643738 293.038574,874.844727 
	C290.240997,873.191284 288.130554,870.921265 286.734650,867.999146 
	C285.059784,864.492920 285.794098,862.514709 290.457153,862.983398 
z"/>
<path fill="#000000" opacity="1.000000" stroke="none" 
	d="
M252.733185,859.268311 
	C252.604507,861.178833 251.775543,862.033630 250.198929,862.113647 
	C246.892151,862.281494 239.287704,854.065002 240.167038,850.979858 
	C241.013077,848.011475 243.334198,848.314270 245.280975,849.748596 
	C248.511688,852.128845 251.168915,855.085205 252.733185,859.268311 
z"/>
<path fill="#000000" opacity="1.000000" stroke="none" 
	d="
M156.688080,185.330139 
	C158.763046,177.234589 164.838211,172.687561 170.808823,167.383270 
	C172.466263,172.524460 162.578918,184.565964 156.688080,185.330139 
z"/>
<path fill="#000000" opacity="1.000000" stroke="none" 
	d="
M71.240219,325.054749 
	C70.361298,327.081940 69.600815,328.748688 67.258278,328.334351 
	C66.339630,323.227478 72.228073,309.710724 77.564476,306.594604 
	C77.084450,313.797546 73.497246,319.047913 71.240219,325.054749 
z"/>
<path fill="#000000" opacity="1.000000" stroke="none" 
	d="
M43.728722,399.045837 
	C45.066113,396.560547 44.307484,391.986359 47.548252,392.685974 
	C51.303207,393.496643 48.369236,397.212830 48.139969,399.459808 
	C47.727348,403.503662 46.550377,407.485077 45.495163,411.439880 
	C45.094288,412.942322 44.652412,414.734802 42.131550,414.999725 
	C40.094856,409.566772 43.090111,404.599762 43.728722,399.045837 
z"/>
<path fill="#000000" opacity="1.000000" stroke="none" 
	d="
M201.408142,838.939758 
	C197.591904,836.583740 195.177353,833.491943 193.612473,829.727783 
	C193.170074,828.663696 192.741867,827.473083 193.876434,826.525269 
	C195.052658,825.542542 196.436264,825.575928 197.566223,826.415405 
	C200.804214,828.820862 203.570877,831.721252 204.997849,835.556580 
	C206.087524,838.485413 204.692810,839.612549 201.408142,838.939758 
z"/>
<path fill="#000000" opacity="1.000000" stroke="none" 
	d="
M821.107178,517.762695 
	C821.545105,518.513000 821.801147,518.939941 821.985413,519.395874 
	C823.223206,522.460022 822.331116,524.874878 819.637085,526.637573 
	C817.384094,528.111755 815.412354,527.203369 813.997986,525.393982 
	C812.072571,522.930603 811.932739,520.149719 814.030396,517.692688 
	C816.118347,515.247192 818.524597,515.263245 821.107178,517.762695 
z"/>
<path fill="#000000" opacity="1.000000" stroke="none" 
	d="
M782.938477,600.893616 
	C786.792725,599.115967 788.753296,601.224426 789.836365,604.009949 
	C790.993286,606.985474 789.024536,609.065308 786.741699,610.687012 
	C784.437744,612.323730 782.495056,611.217041 781.122803,609.377502 
	C778.770386,606.224060 779.849182,603.457336 782.938477,600.893616 
z"/>
<path fill="#000000" opacity="1.000000" stroke="none" 
	d="
M109.874100,249.553833 
	C107.414932,251.071136 105.876175,249.934464 106.844681,247.951248 
	C109.839500,241.818665 112.677879,235.444290 118.352974,230.848846 
	C120.254333,234.631989 119.322205,236.612076 109.874100,249.553833 
z"/>
<path fill="#000000" opacity="1.000000" stroke="none" 
	d="
M835.169067,428.122681 
	C836.807495,431.622589 836.196960,434.348663 833.224060,436.132599 
	C830.598694,437.708008 828.945435,435.811279 827.544800,433.873383 
	C825.745300,431.383575 825.933960,428.927551 828.044861,426.739563 
	C830.780579,423.903961 832.989746,425.280823 835.169067,428.122681 
z"/>
<path fill="#000000" opacity="1.000000" stroke="none" 
	d="
M586.412476,64.904648 
	C589.258972,66.132149 591.221741,67.719200 589.889404,70.702782 
	C588.699280,73.367706 586.325012,74.628250 583.403564,74.176033 
	C580.480042,73.723503 578.394165,72.115425 578.844238,68.839851 
	C579.436707,64.528069 582.748962,64.607811 586.412476,64.904648 
z"/>
<path fill="#000000" opacity="1.000000" stroke="none" 
	d="
M146.871002,796.594055 
	C146.780594,791.997681 148.846054,792.052185 151.401276,794.173523 
	C154.115677,796.426941 155.670624,799.612671 157.261963,802.705078 
	C157.899231,803.943542 158.259018,805.258545 156.873306,806.253418 
	C155.569946,807.189148 154.281097,806.671448 153.235474,805.786926 
	C150.406616,803.393982 148.450897,800.342957 146.871002,796.594055 
z"/>
<path fill="#000000" opacity="1.000000" stroke="none" 
	d="
M734.232178,678.339294 
	C736.178650,676.237244 738.047607,674.950623 740.577576,676.355957 
	C742.302673,677.314270 743.188843,678.845825 743.058533,680.862366 
	C742.901062,683.299316 741.369263,684.696106 739.321960,685.677063 
	C737.468323,686.565247 735.725220,686.290344 734.298401,684.887451 
	C732.338623,682.960632 732.421753,680.811279 734.232178,678.339294 
z"/>
<path fill="#000000" opacity="1.000000" stroke="none" 
	d="
M112.818375,759.996826 
	C112.697510,761.911255 112.034492,762.853271 110.279137,762.448059 
	C106.685928,761.618530 102.453613,751.817078 104.217461,747.647949 
	C109.473541,750.014343 110.696312,755.148315 112.818375,759.996826 
z"/>
<path fill="#000000" opacity="1.000000" stroke="none" 
	d="
M541.560181,43.148743 
	C542.600647,42.560570 543.334900,41.980934 544.098145,41.939884 
	C546.319763,41.820393 548.970154,40.955021 550.132935,43.850384 
	C551.072144,46.188881 550.085815,48.149265 547.976257,49.310284 
	C545.515442,50.664593 542.768616,50.987877 540.571289,49.004322 
	C538.468567,47.106174 539.691467,45.114212 541.560181,43.148743 
z"/>
<path fill="#000000" opacity="1.000000" stroke="none" 
	d="
M824.281982,338.126282 
	C825.578613,338.311005 826.655396,338.380005 827.401611,338.912384 
	C830.163940,340.883179 831.255310,343.587341 829.519409,346.668884 
	C828.281189,348.866974 826.120911,349.429291 824.063843,347.637115 
	C821.505554,345.408203 819.921265,342.780029 822.392395,339.462341 
	C822.770813,338.954285 823.398193,338.631653 824.281982,338.126282 
z"/>
<path fill="#000000" opacity="1.000000" stroke="none" 
	d="
M685.466919,742.911255 
	C685.778381,744.034241 686.142273,744.886475 685.980286,745.623047 
	C685.411438,748.209473 684.140137,750.227844 681.129028,750.371460 
	C679.125000,750.467102 677.514343,749.852112 676.996033,747.700439 
	C676.382629,745.153992 677.453491,743.211609 679.392639,741.655090 
	C681.686951,739.813293 683.621643,740.349243 685.466919,742.911255 
z"/>
<path fill="#000000" opacity="1.000000" stroke="none" 
	d="
M804.907593,259.132629 
	C807.030029,261.908997 808.040955,264.536469 804.748779,266.547943 
	C802.248047,268.075836 800.377991,266.406921 798.895264,264.464691 
	C797.451538,262.573639 797.126526,260.441956 798.698853,258.559113 
	C800.671265,256.197174 802.746277,257.067932 804.907593,259.132629 
z"/>
<path fill="#000000" opacity="1.000000" stroke="none" 
	d="
M626.176575,796.849365 
	C626.418091,797.969238 626.740540,798.865540 626.497742,799.565674 
	C625.682068,801.917114 623.990356,803.643555 621.485229,803.795166 
	C619.468506,803.917297 618.137817,802.415466 617.730103,800.449097 
	C617.216675,797.973083 618.686401,796.301208 620.523010,795.050964 
	C622.803223,793.498657 624.583130,794.519714 626.176575,796.849365 
z"/>
<path fill="#000000" opacity="1.000000" stroke="none" 
	d="
M507.178772,36.132614 
	C504.929474,35.676846 503.513184,34.673649 504.295288,32.652203 
	C505.440796,29.691467 508.388397,28.969250 511.065979,28.157839 
	C512.678040,27.669310 514.057800,28.457043 514.744385,29.972441 
	C515.593201,31.846127 514.569458,33.149155 513.052551,34.122494 
	C511.382172,35.194294 509.735291,36.375290 507.178772,36.132614 
z"/>
<path fill="#000000" opacity="1.000000" stroke="none" 
	d="
M72.192261,706.016602 
	C68.859329,702.575195 68.214233,698.197876 66.631599,694.251221 
	C66.238930,693.272095 66.327522,692.247253 67.288033,691.588867 
	C68.036896,691.075562 68.850471,691.232788 69.619888,691.683289 
	C71.991547,693.071777 75.062233,703.203430 73.806412,705.762512 
	C73.665939,706.048767 72.935760,706.045593 72.192261,706.016602 
z"/>
<path fill="#000000" opacity="1.000000" stroke="none" 
	d="
M763.450806,194.531189 
	C761.584961,191.964355 759.262634,189.362030 763.125732,187.371674 
	C766.035339,185.872528 768.009583,188.009277 769.425659,190.484695 
	C770.248657,191.923386 770.345886,193.329239 769.107422,194.535767 
	C767.426819,196.173035 765.578125,195.982559 763.450806,194.531189 
z"/>
<path fill="#000000" opacity="1.000000" stroke="none" 
	d="
M436.088318,23.823927 
	C438.746246,23.077436 441.868988,21.188396 442.928101,24.261250 
	C443.953827,27.237343 440.031677,27.242619 438.209229,28.264126 
	C435.985504,29.510557 433.394836,30.508766 431.033783,28.113394 
	C431.598419,25.388882 433.817261,24.849005 436.088318,23.823927 
z"/>
<path fill="#000000" opacity="1.000000" stroke="none" 
	d="
M45.825638,626.679443 
	C45.590443,630.737488 48.789944,634.084534 47.307587,638.021057 
	C43.121147,636.407288 40.930859,629.411072 42.626331,623.795532 
	C44.704094,623.339111 44.898712,625.187805 45.825638,626.679443 
z"/>
<path fill="#000000" opacity="1.000000" stroke="none" 
	d="
M398.292175,33.528774 
	C394.839081,34.161839 392.151184,37.935440 388.472107,35.163765 
	C390.626678,30.939421 394.622284,29.236868 400.406952,29.943686 
	C401.451416,31.931427 399.663971,32.440338 398.292175,33.528774 
z"/>
<path fill="#000000" opacity="1.000000" stroke="none" 
	d="
M344.579224,45.416649 
	C347.221252,44.076435 349.494354,42.653633 352.279572,43.982342 
	C351.201385,46.582577 343.720886,51.399490 341.400360,51.005779 
	C340.848145,50.912090 340.176758,50.483582 339.904694,50.010830 
	C339.460663,49.239071 339.706451,48.287376 340.416992,47.792809 
	C341.624298,46.952457 342.963165,46.301029 344.579224,45.416649 
z"/>
<path fill="#000000" opacity="1.000000" stroke="none" 
	d="
M478.674011,22.964413 
	C481.682373,26.548460 478.439178,27.279846 476.453430,28.288961 
	C474.233795,29.416939 471.625244,30.218851 469.594696,28.127899 
	C468.423645,26.922010 469.727509,25.640888 470.828949,24.908573 
	C473.062744,23.423357 475.485382,22.418283 478.674011,22.964413 
z"/>
<path fill="#000000" opacity="1.000000" stroke="none" 
	d="
M295.249817,71.425446 
	C292.143433,72.560257 290.114899,75.820908 286.466675,74.590233 
	C287.654541,70.278069 293.301300,66.748421 298.111298,67.194290 
	C298.971832,69.611649 297.019012,70.286499 295.249817,71.425446 
z"/>
<path fill="#000000" opacity="1.000000" stroke="none" 
	d="
M560.706177,843.682678 
	C560.622314,842.841858 560.528198,842.309692 560.678589,841.859192 
	C561.345764,839.861145 562.431274,838.207336 564.798340,838.152222 
	C566.531921,838.111938 567.598755,839.167297 567.940857,840.792664 
	C568.366516,842.815308 567.471619,844.438538 565.804321,845.457947 
	C563.744446,846.717346 562.002014,846.158142 560.706177,843.682678 
z"/>
<path fill="#000000" opacity="1.000000" stroke="none" 
	d="
M717.169800,131.924423 
	C718.296936,128.072159 720.527588,127.883469 723.249634,129.721069 
	C725.294250,131.101379 726.180054,133.228226 724.708862,135.263657 
	C723.106018,137.481186 720.890076,136.754364 719.144714,135.108322 
	C718.331787,134.341690 717.843689,133.230606 717.169800,131.924423 
z"/>
<path fill="#000000" opacity="1.000000" stroke="none" 
	d="
M434.003235,920.383179 
	C433.086304,920.085876 432.372650,919.920105 431.971436,919.473572 
	C430.503876,917.840454 429.006195,915.936584 431.134277,913.960999 
	C432.838837,912.378784 434.593933,913.459167 435.716827,915.041199 
	C437.267578,917.226013 437.557495,919.311462 434.003235,920.383179 
z"/>
<path fill="#000000" opacity="1.000000" stroke="none" 
	d="
M166.542633,846.580750 
	C165.144928,844.760132 163.265335,843.553772 163.554871,841.278870 
	C163.676147,840.326050 164.638397,839.900696 165.456589,840.094177 
	C167.715164,840.627930 169.017319,842.406494 170.148865,844.247437 
	C170.744293,845.216064 171.343643,846.425903 170.279724,847.428772 
	C168.963837,848.669250 167.864944,847.635864 166.542633,846.580750 
z"/>
<path fill="#000000" opacity="1.000000" stroke="none" 
	d="
M673.864014,89.240799 
	C672.084412,87.668625 671.093994,86.107666 672.753357,84.369621 
	C673.928162,83.139091 675.536682,83.416504 676.842529,84.318108 
	C678.096069,85.183594 679.169739,86.429253 678.583557,88.059265 
	C677.793335,90.256683 676.108521,90.445320 673.864014,89.240799 
z"/>
<path fill="#000000" opacity="1.000000" stroke="none" 
	d="
M404.371521,929.790649 
	C403.882782,929.974976 403.717041,930.031006 403.557892,930.016113 
	C400.560364,929.735352 399.175415,927.831360 399.246552,925.077087 
	C399.286438,923.532166 400.787598,922.840210 402.191772,923.448425 
	C404.930573,924.634766 406.418976,926.535522 404.371521,929.790649 
z"/>
<path fill="#000000" opacity="1.000000" stroke="none" 
	d="
M259.195465,897.945801 
	C259.644989,898.193542 259.792938,898.276184 259.911316,898.389648 
	C261.312958,899.733948 263.273651,900.752197 263.063263,903.095886 
	C263.022827,903.545898 262.233032,904.240112 261.739716,904.285461 
	C259.214020,904.517273 258.016052,902.488586 256.576019,900.951050 
	C255.902084,900.231567 255.205719,899.330017 255.787704,898.291199 
	C256.547516,896.934998 257.777588,897.546387 259.195465,897.945801 
z"/>
<path fill="#000000" opacity="1.000000" stroke="none" 
	d="
M298.669800,917.175781 
	C297.764160,914.674744 298.593536,913.259338 300.772339,914.149780 
	C303.452637,915.245178 305.900391,917.035034 305.244110,920.721985 
	C301.865509,921.534119 300.520813,919.217651 298.669800,917.175781 
z"/>
<path fill="#000000" opacity="1.000000" stroke="none" 
	d="
M374.609253,932.962158 
	C374.181427,933.250305 374.017426,933.356934 373.870087,933.337402 
	C370.919678,932.947021 369.082214,931.377747 368.955261,928.308411 
	C368.901611,927.011902 369.822418,925.830750 371.107666,926.388184 
	C373.745972,927.532471 376.024078,929.190063 374.609253,932.962158 
z"/>
<path fill="#000000" opacity="1.000000" stroke="none" 
	d="
M216.742096,877.098877 
	C218.088181,880.177673 217.205963,881.532898 214.406845,880.003418 
	C212.254044,878.827087 210.050964,877.093628 210.425797,873.745117 
	C213.620255,872.778687 214.833832,875.300232 216.742096,877.098877 
z"/>
<path fill="#000000" opacity="1.000000" stroke="none" 
	d="
M342.486511,929.434937 
	C338.738342,931.372620 337.160248,928.999695 335.925018,926.358337 
	C335.416901,925.271851 335.755341,923.721069 337.275604,923.802124 
	C340.494781,923.973999 342.209198,925.998108 342.486511,929.434937 
z"/>
<path fill="#000000" opacity="1.000000" stroke="none" 
	d="
M629.135193,52.860092 
	C629.626587,51.220985 630.607605,50.761478 631.866638,50.726135 
	C633.482239,50.680798 634.808533,51.175766 635.486938,52.759022 
	C635.842041,53.587585 635.675171,54.385883 635.026794,55.024139 
	C633.786743,56.244934 632.386292,56.196785 630.923340,55.475910 
	C629.981750,55.011959 629.362793,54.283787 629.135193,52.860092 
z"/>
<path fill="#000000" opacity="1.000000" stroke="none" 
	d="
M120.757782,800.605713 
	C120.635971,798.968079 121.189850,797.476135 122.507729,798.304932 
	C124.881477,799.797607 127.477142,801.606812 126.165558,805.514465 
	C123.100632,805.249817 122.032928,803.016602 120.757782,800.605713 
z"/>
<path fill="#000000" opacity="1.000000" stroke="none" 
	d="
M238.436066,105.635864 
	C236.179718,107.124893 234.778198,109.490654 231.940826,109.412987 
	C232.828262,105.709511 234.276535,104.402061 239.104034,102.883820 
	C240.099075,103.914253 239.272598,104.646278 238.436066,105.635864 
z"/>
<path fill="#000000" opacity="1.000000" stroke="none" 
	d="
M594.298828,32.760105 
	C592.242004,30.796898 592.572998,29.289761 594.783142,28.404608 
	C595.995972,27.918858 597.196472,28.659500 597.559082,29.847279 
	C598.330017,32.372860 596.861145,33.076229 594.298828,32.760105 
z"/>
<path fill="#000000" opacity="1.000000" stroke="none" 
	d="
M563.259277,18.798489 
	C561.905273,15.870135 563.683777,15.443494 565.657166,15.392530 
	C566.705994,15.365444 567.747986,16.094210 567.523499,17.186050 
	C567.063049,19.425102 565.533691,19.947876 563.259277,18.798489 
z"/>
<!-- Text: "realms" positioned on the right side -->
<defs>
  <linearGradient id="textGradient" x1="0%" y1="0%" x2="100%" y2="100%">
    <stop offset="0%" style="stop-color:#4A4A4A;stop-opacity:1" />
    <stop offset="50%" style="stop-color:#2D2D2D;stop-opacity:1" />
    <stop offset="100%" style="stop-color:#171717;stop-opacity:1" />
  </linearGradient>
</defs>

<text x="850" y="500" font-family="Inter, system-ui, -apple-system, sans-serif" 
      font-size="350" font-weight="500" text-anchor="start" 
      fill="url(#textGradient)">realms</text>

</svg>
