<svg width="300" height="100" viewBox="0 0 300 100" xmlns="http://www.w3.org/2000/svg">
  <defs>
    <!-- Planet gradient with sophisticated lighting -->
    <radialGradient id="planetBody" cx="30%" cy="20%" r="100%">
      <stop offset="0%" style="stop-color:#ffffff;stop-opacity:1" />
      <stop offset="15%" style="stop-color:#f8f9fa;stop-opacity:1" />
      <stop offset="40%" style="stop-color:#e9ecef;stop-opacity:1" />
      <stop offset="70%" style="stop-color:#adb5bd;stop-opacity:1" />
      <stop offset="90%" style="stop-color:#495057;stop-opacity:1" />
      <stop offset="100%" style="stop-color:#212529;stop-opacity:1" />
    </radialGradient>
    
    <!-- Text gradient -->
    <linearGradient id="textGradient" x1="0%" y1="0%" x2="100%" y2="0%">
      <stop offset="0%" style="stop-color:#495057;stop-opacity:1" />
      <stop offset="100%" style="stop-color:#212529;stop-opacity:1" />
    </linearGradient>
    
    <!-- Planet shadow -->
    <filter id="planetShadow" x="-50%" y="-50%" width="200%" height="200%">
      <feGaussianBlur in="SourceAlpha" stdDeviation="3"/>
      <feOffset dx="3" dy="3" result="offset"/>
      <feComponentTransfer>
        <feFuncA type="linear" slope="0.25"/>
      </feComponentTransfer>
      <feMerge> 
        <feMergeNode/>
        <feMergeNode in="SourceGraphic"/> 
      </feMerge>
    </filter>
    
    <!-- Clipping path for planet boundary -->
    <clipPath id="planetClip">
      <circle cx="50" cy="50" r="30"/>
    </clipPath>
  </defs>
  
  <!-- Planet base -->
  <circle cx="50" cy="50" r="30" fill="url(#planetBody)" filter="url(#planetShadow)"/>
  
  <!-- Tennis ball-inspired divisions (2 divisions) -->
  <g clip-path="url(#planetClip)">
    
    <!-- Division 1: Upper hemisphere with elegant curve -->
    <path d="M 20 50 Q 35 25 50 35 Q 65 45 80 50 Q 65 55 50 65 Q 35 75 20 50 Z" 
          fill="#ffffff" opacity="0.9" stroke="#212529" stroke-width="0.6"/>
    
    <!-- Division 2: Lower hemisphere with complementary curve -->
    <path d="M 20 50 Q 35 75 50 65 Q 65 55 80 50 Q 65 45 50 35 Q 35 25 20 50 Z" 
          fill="#6c757d" opacity="0.9" stroke="#212529" stroke-width="0.6"/>
    
    <!-- Central flowing curve (tennis ball seam style) -->
    <path d="M 20 50 Q 35 25 50 35 Q 65 45 80 50 Q 65 55 50 65 Q 35 75 20 50" 
          fill="none" stroke="#212529" stroke-width="0.8" opacity="0.8"/>
    
  </g>
  
  <!-- Atmospheric layers -->
  <circle cx="50" cy="50" r="31" fill="none" stroke="#ffffff" stroke-width="0.5" opacity="0.3"/>
  <circle cx="50" cy="50" r="32.5" fill="none" stroke="#ffffff" stroke-width="0.3" opacity="0.2"/>
  
  <!-- Surface features -->
  <circle cx="42" cy="35" r="0.8" fill="#ffffff" opacity="0.4"/>
  <circle cx="58" cy="65" r="0.6" fill="#ffffff" opacity="0.3"/>
  
  <!-- Text -->
  <text x="110" y="58" font-family="Inter, system-ui, -apple-system, sans-serif" font-size="28" font-weight="500" fill="url(#textGradient)">realms</text>
</svg>
