<svg width="300" height="100" viewBox="0 0 300 100" xmlns="http://www.w3.org/2000/svg">
  <defs>
    <!-- Planet gradient with sophisticated lighting -->
    <radialGradient id="planetBody" cx="30%" cy="20%" r="100%">
      <stop offset="0%" style="stop-color:#ffffff;stop-opacity:1" />
      <stop offset="15%" style="stop-color:#f8f9fa;stop-opacity:1" />
      <stop offset="40%" style="stop-color:#e9ecef;stop-opacity:1" />
      <stop offset="70%" style="stop-color:#adb5bd;stop-opacity:1" />
      <stop offset="90%" style="stop-color:#495057;stop-opacity:1" />
      <stop offset="100%" style="stop-color:#212529;stop-opacity:1" />
    </radialGradient>
    
    <!-- Text gradient -->
    <linearGradient id="textGradient" x1="0%" y1="0%" x2="100%" y2="0%">
      <stop offset="0%" style="stop-color:#495057;stop-opacity:1" />
      <stop offset="100%" style="stop-color:#212529;stop-opacity:1" />
    </linearGradient>
    
    <!-- Planet shadow -->
    <filter id="planetShadow" x="-50%" y="-50%" width="200%" height="200%">
      <feGaussianBlur in="SourceAlpha" stdDeviation="3"/>
      <feOffset dx="3" dy="3" result="offset"/>
      <feComponentTransfer>
        <feFuncA type="linear" slope="0.25"/>
      </feComponentTransfer>
      <feMerge> 
        <feMergeNode/>
        <feMergeNode in="SourceGraphic"/> 
      </feMerge>
    </filter>
    
    <!-- Clipping path for planet boundary -->
    <clipPath id="planetClip">
      <circle cx="50" cy="50" r="30"/>
    </clipPath>
  </defs>
  
  <!-- Planet base -->
  <circle cx="50" cy="50" r="30" fill="url(#planetBody)" filter="url(#planetShadow)"/>
  
  <!-- Spherical triangular mesh within planet boundary (sparse) -->
  <g clip-path="url(#planetClip)">
    
    <!-- Curved triangle 1: Upper left (following sphere curvature) -->
    <path d="M 30 30 Q 40 25 50 30 Q 45 40 35 45 Q 30 37 30 30 Z" 
          fill="#ffffff" opacity="0.9" stroke="#212529" stroke-width="0.6"/>
    
    <!-- Curved triangle 2: Upper right -->
    <path d="M 50 30 Q 60 25 70 30 Q 65 40 55 45 Q 50 37 50 30 Z" 
          fill="#e9ecef" opacity="0.9" stroke="#212529" stroke-width="0.6"/>
    
    <!-- Curved triangle 3: Center left -->
    <path d="M 35 45 Q 45 40 50 50 Q 40 60 30 55 Q 32 50 35 45 Z" 
          fill="#adb5bd" opacity="0.9" stroke="#212529" stroke-width="0.6"/>
    
    <!-- Curved triangle 4: Center right -->
    <path d="M 55 45 Q 65 40 70 50 Q 60 60 50 55 Q 52 50 55 45 Z" 
          fill="#6c757d" opacity="0.9" stroke="#212529" stroke-width="0.6"/>
    
    <!-- Curved triangle 5: Lower left -->
    <path d="M 30 55 Q 40 60 45 70 Q 35 75 25 70 Q 27 62 30 55 Z" 
          fill="#495057" opacity="0.9" stroke="#212529" stroke-width="0.6"/>
    
    <!-- Curved triangle 6: Lower right -->
    <path d="M 50 55 Q 60 60 65 70 Q 55 75 45 70 Q 47 62 50 55 Z" 
          fill="#343a40" opacity="0.9" stroke="#212529" stroke-width="0.6"/>
    
    <!-- Curved triangle 7: Bottom center -->
    <path d="M 45 70 Q 50 75 55 70 Q 60 75 50 80 Q 40 75 45 70 Z" 
          fill="#6c757d" opacity="0.8" stroke="#212529" stroke-width="0.6"/>
    
    <!-- Central connecting curved triangle -->
    <path d="M 35 45 Q 50 50 55 45 Q 52 50 50 55 Q 47 62 45 70 Q 40 60 35 45 Z" 
          fill="#495057" opacity="0.8" stroke="#212529" stroke-width="0.6"/>
    
  </g>
  
  <!-- Atmospheric layers -->
  <circle cx="50" cy="50" r="31" fill="none" stroke="#ffffff" stroke-width="0.5" opacity="0.3"/>
  <circle cx="50" cy="50" r="32.5" fill="none" stroke="#ffffff" stroke-width="0.3" opacity="0.2"/>
  
  <!-- Surface features -->
  <circle cx="42" cy="35" r="0.8" fill="#ffffff" opacity="0.4"/>
  <circle cx="65" cy="45" r="0.6" fill="#ffffff" opacity="0.3"/>
  <circle cx="45" cy="65" r="0.7" fill="#ffffff" opacity="0.3"/>
  
  <!-- Text -->
  <text x="110" y="58" font-family="Inter, system-ui, -apple-system, sans-serif" font-size="28" font-weight="500" fill="url(#textGradient)">realms</text>
</svg>
