<svg width="300" height="100" viewBox="0 0 300 100" xmlns="http://www.w3.org/2000/svg">
  <defs>
    <!-- Planet gradient with sophisticated lighting -->
    <radialGradient id="planetBody" cx="30%" cy="20%" r="100%">
      <stop offset="0%" style="stop-color:#ffffff;stop-opacity:1" />
      <stop offset="15%" style="stop-color:#f8f9fa;stop-opacity:1" />
      <stop offset="40%" style="stop-color:#e9ecef;stop-opacity:1" />
      <stop offset="70%" style="stop-color:#adb5bd;stop-opacity:1" />
      <stop offset="90%" style="stop-color:#495057;stop-opacity:1" />
      <stop offset="100%" style="stop-color:#212529;stop-opacity:1" />
    </radialGradient>
    
    <!-- Text gradient -->
    <linearGradient id="textGradient" x1="0%" y1="0%" x2="100%" y2="0%">
      <stop offset="0%" style="stop-color:#495057;stop-opacity:1" />
      <stop offset="100%" style="stop-color:#212529;stop-opacity:1" />
    </linearGradient>
    
    <!-- Planet shadow -->
    <filter id="planetShadow" x="-50%" y="-50%" width="200%" height="200%">
      <feGaussianBlur in="SourceAlpha" stdDeviation="3"/>
      <feOffset dx="3" dy="3" result="offset"/>
      <feComponentTransfer>
        <feFuncA type="linear" slope="0.25"/>
      </feComponentTransfer>
      <feMerge> 
        <feMergeNode/>
        <feMergeNode in="SourceGraphic"/> 
      </feMerge>
    </filter>
    
    <!-- Clipping path for planet boundary -->
    <clipPath id="planetClip">
      <circle cx="50" cy="50" r="30"/>
    </clipPath>
  </defs>
  
  <!-- Planet base -->
  <circle cx="50" cy="50" r="30" fill="url(#planetBody)" filter="url(#planetShadow)"/>
  
  <!-- Spherical triangular mesh within planet boundary (medium density) -->
  <g clip-path="url(#planetClip)">
    
    <!-- Top row of curved triangles -->
    <path d="M 32 25 Q 40 22 48 25 Q 44 32 36 35 Q 32 30 32 25 Z" 
          fill="#ffffff" opacity="0.9" stroke="#212529" stroke-width="0.5"/>
    <path d="M 48 25 Q 56 22 64 25 Q 60 32 52 35 Q 48 30 48 25 Z" 
          fill="#f8f9fa" opacity="0.9" stroke="#212529" stroke-width="0.5"/>
    <path d="M 64 25 Q 72 22 78 28 Q 74 35 66 38 Q 64 30 64 25 Z" 
          fill="#e9ecef" opacity="0.9" stroke="#212529" stroke-width="0.5"/>
    
    <!-- Second row of curved triangles -->
    <path d="M 26 35 Q 36 35 42 42 Q 34 50 26 48 Q 24 41 26 35 Z" 
          fill="#adb5bd" opacity="0.9" stroke="#212529" stroke-width="0.5"/>
    <path d="M 36 35 Q 44 32 52 35 Q 50 42 42 45 Q 36 40 36 35 Z" 
          fill="#6c757d" opacity="0.9" stroke="#212529" stroke-width="0.5"/>
    <path d="M 52 35 Q 60 32 68 35 Q 66 42 58 45 Q 52 40 52 35 Z" 
          fill="#495057" opacity="0.9" stroke="#212529" stroke-width="0.5"/>
    <path d="M 68 35 Q 74 35 80 42 Q 76 50 68 48 Q 66 41 68 35 Z" 
          fill="#343a40" opacity="0.9" stroke="#212529" stroke-width="0.5"/>
    
    <!-- Third row of curved triangles -->
    <path d="M 24 48 Q 34 50 38 58 Q 30 65 22 62 Q 20 55 24 48 Z" 
          fill="#6c757d" opacity="0.9" stroke="#212529" stroke-width="0.5"/>
    <path d="M 34 50 Q 42 45 50 50 Q 48 58 40 62 Q 34 56 34 50 Z" 
          fill="#adb5bd" opacity="0.9" stroke="#212529" stroke-width="0.5"/>
    <path d="M 50 50 Q 58 45 66 50 Q 64 58 56 62 Q 50 56 50 50 Z" 
          fill="#e9ecef" opacity="0.9" stroke="#212529" stroke-width="0.5"/>
    <path d="M 66 50 Q 76 50 82 58 Q 78 65 70 62 Q 68 55 66 50 Z" 
          fill="#f8f9fa" opacity="0.9" stroke="#212529" stroke-width="0.5"/>
    
    <!-- Fourth row of curved triangles -->
    <path d="M 22 62 Q 30 65 36 72 Q 28 78 20 75 Q 18 68 22 62 Z" 
          fill="#495057" opacity="0.8" stroke="#212529" stroke-width="0.5"/>
    <path d="M 30 65 Q 40 62 48 68 Q 44 75 34 78 Q 30 71 30 65 Z" 
          fill="#343a40" opacity="0.8" stroke="#212529" stroke-width="0.5"/>
    <path d="M 48 68 Q 58 62 68 68 Q 64 75 54 78 Q 48 71 48 68 Z" 
          fill="#6c757d" opacity="0.8" stroke="#212529" stroke-width="0.5"/>
    <path d="M 68 68 Q 78 65 82 72 Q 78 78 70 75 Q 68 71 68 68 Z" 
          fill="#adb5bd" opacity="0.8" stroke="#212529" stroke-width="0.5"/>
    
    <!-- Bottom row of curved triangles -->
    <path d="M 34 78 Q 44 75 54 78 Q 50 82 44 80 Q 38 82 34 78 Z" 
          fill="#e9ecef" opacity="0.8" stroke="#212529" stroke-width="0.5"/>
    
  </g>
  
  <!-- Atmospheric layers -->
  <circle cx="50" cy="50" r="31" fill="none" stroke="#ffffff" stroke-width="0.5" opacity="0.3"/>
  <circle cx="50" cy="50" r="32.5" fill="none" stroke="#ffffff" stroke-width="0.3" opacity="0.2"/>
  
  <!-- Surface features -->
  <circle cx="42" cy="32" r="0.6" fill="#ffffff" opacity="0.4"/>
  <circle cx="65" cy="45" r="0.5" fill="#ffffff" opacity="0.3"/>
  <circle cx="45" cy="68" r="0.6" fill="#ffffff" opacity="0.3"/>
  
  <!-- Text -->
  <text x="110" y="58" font-family="Inter, system-ui, -apple-system, sans-serif" font-size="28" font-weight="500" fill="url(#textGradient)">realms</text>
</svg>
