<svg width="300" height="100" viewBox="0 0 300 100" xmlns="http://www.w3.org/2000/svg">
  <defs>
    <!-- Text gradient -->
    <linearGradient id="textGradient" x1="0%" y1="0%" x2="100%" y2="0%">
      <stop offset="0%" style="stop-color:#495057;stop-opacity:1" />
      <stop offset="100%" style="stop-color:#212529;stop-opacity:1" />
    </linearGradient>
    
    <!-- Subtle shadow filter -->
    <filter id="dotShadow" x="-50%" y="-50%" width="200%" height="200%">
      <feGaussianBlur in="SourceAlpha" stdDeviation="0.8"/>
      <feOffset dx="0.8" dy="0.8" result="offset"/>
      <feComponentTransfer>
        <feFuncA type="linear" slope="0.12"/>
      </feComponentTransfer>
      <feMerge> 
        <feMergeNode/>
        <feMergeNode in="SourceGraphic"/> 
      </feMerge>
    </filter>
  </defs>
  
  <!-- Dense stippled sphere pattern -->
  <g filter="url(#dotShadow)">
    
    <!-- Center region - largest dots (closest to viewer) -->
    <circle cx="50" cy="50" r="2.8" fill="#212529" opacity="0.95"/>
    <circle cx="47" cy="47" r="2.4" fill="#343a40" opacity="0.9"/>
    <circle cx="53" cy="53" r="2.2" fill="#495057" opacity="0.85"/>
    <circle cx="51" cy="45" r="2.0" fill="#6c757d" opacity="0.8"/>
    <circle cx="49" cy="55" r="1.8" fill="#adb5bd" opacity="0.75"/>
    <circle cx="48" cy="51" r="1.6" fill="#495057" opacity="0.8"/>
    <circle cx="52" cy="49" r="1.4" fill="#6c757d" opacity="0.75"/>
    <circle cx="46" cy="52" r="1.2" fill="#6c757d" opacity="0.7"/>
    <circle cx="54" cy="48" r="1.0" fill="#adb5bd" opacity="0.65"/>
    
    <!-- Inner ring - medium-large dots -->
    <circle cx="43" cy="50" r="1.6" fill="#343a40" opacity="0.85"/>
    <circle cx="57" cy="50" r="1.4" fill="#495057" opacity="0.8"/>
    <circle cx="50" cy="40" r="1.5" fill="#6c757d" opacity="0.75"/>
    <circle cx="50" cy="60" r="1.3" fill="#adb5bd" opacity="0.7"/>
    <circle cx="45" cy="42" r="1.2" fill="#495057" opacity="0.75"/>
    <circle cx="55" cy="58" r="1.1" fill="#6c757d" opacity="0.7"/>
    <circle cx="42" cy="58" r="1.0" fill="#adb5bd" opacity="0.65"/>
    <circle cx="58" cy="42" r="0.9" fill="#6c757d" opacity="0.65"/>
    <circle cx="46" cy="38" r="0.8" fill="#6c757d" opacity="0.6"/>
    <circle cx="54" cy="62" r="0.7" fill="#adb5bd" opacity="0.6"/>
    <circle cx="38" cy="54" r="0.6" fill="#adb5bd" opacity="0.6"/>
    <circle cx="62" cy="46" r="0.5" fill="#6c757d" opacity="0.6"/>
    <circle cx="44" cy="44" r="0.7" fill="#6c757d" opacity="0.6"/>
    <circle cx="56" cy="56" r="0.6" fill="#adb5bd" opacity="0.55"/>
    <circle cx="48" cy="43" r="0.5" fill="#adb5bd" opacity="0.55"/>
    <circle cx="52" cy="57" r="0.4" fill="#adb5bd" opacity="0.5"/>
    
    <!-- Middle ring - medium dots -->
    <circle cx="37" cy="50" r="0.9" fill="#495057" opacity="0.7"/>
    <circle cx="63" cy="50" r="0.7" fill="#6c757d" opacity="0.65"/>
    <circle cx="50" cy="35" r="0.8" fill="#6c757d" opacity="0.65"/>
    <circle cx="50" cy="65" r="0.6" fill="#adb5bd" opacity="0.6"/>
    <circle cx="40" cy="40" r="0.7" fill="#6c757d" opacity="0.65"/>
    <circle cx="60" cy="60" r="0.5" fill="#adb5bd" opacity="0.55"/>
    <circle cx="40" cy="60" r="0.6" fill="#adb5bd" opacity="0.6"/>
    <circle cx="60" cy="40" r="0.4" fill="#6c757d" opacity="0.6"/>
    <circle cx="47" cy="36" r="0.5" fill="#adb5bd" opacity="0.55"/>
    <circle cx="53" cy="64" r="0.3" fill="#adb5bd" opacity="0.5"/>
    <circle cx="36" cy="47" r="0.4" fill="#6c757d" opacity="0.55"/>
    <circle cx="64" cy="53" r="0.2" fill="#adb5bd" opacity="0.45"/>
    <circle cx="42" cy="37" r="0.3" fill="#6c757d" opacity="0.5"/>
    <circle cx="58" cy="63" r="0.2" fill="#adb5bd" opacity="0.45"/>
    <circle cx="37" cy="42" r="0.2" fill="#adb5bd" opacity="0.45"/>
    <circle cx="63" cy="58" r="0.1" fill="#adb5bd" opacity="0.4"/>
    <circle cx="45" cy="33" r="0.2" fill="#adb5bd" opacity="0.4"/>
    <circle cx="55" cy="67" r="0.1" fill="#adb5bd" opacity="0.35"/>
    <circle cx="33" cy="45" r="0.1" fill="#6c757d" opacity="0.4"/>
    <circle cx="67" cy="55" r="0.1" fill="#adb5bd" opacity="0.3"/>
    
    <!-- Outer ring - small dots (edge of sphere) -->
    <circle cx="31" cy="50" r="0.3" fill="#6c757d" opacity="0.5"/>
    <circle cx="69" cy="50" r="0.2" fill="#adb5bd" opacity="0.4"/>
    <circle cx="50" cy="29" r="0.2" fill="#adb5bd" opacity="0.45"/>
    <circle cx="50" cy="71" r="0.1" fill="#adb5bd" opacity="0.35"/>
    <circle cx="34" cy="34" r="0.1" fill="#adb5bd" opacity="0.4"/>
    <circle cx="66" cy="66" r="0.1" fill="#adb5bd" opacity="0.3"/>
    <circle cx="34" cy="66" r="0.1" fill="#adb5bd" opacity="0.35"/>
    <circle cx="66" cy="34" r="0.1" fill="#adb5bd" opacity="0.3"/>
    <circle cx="41" cy="31" r="0.1" fill="#adb5bd" opacity="0.35"/>
    <circle cx="59" cy="69" r="0.1" fill="#adb5bd" opacity="0.25"/>
    <circle cx="31" cy="41" r="0.1" fill="#adb5bd" opacity="0.3"/>
    <circle cx="69" cy="59" r="0.1" fill="#adb5bd" opacity="0.25"/>
    <circle cx="38" cy="32" r="0.1" fill="#adb5bd" opacity="0.25"/>
    <circle cx="62" cy="68" r="0.1" fill="#adb5bd" opacity="0.2"/>
    <circle cx="32" cy="38" r="0.1" fill="#adb5bd" opacity="0.25"/>
    <circle cx="68" cy="62" r="0.1" fill="#adb5bd" opacity="0.2"/>
    
    <!-- Dense additional scattered dots for rich texture -->
    <circle cx="44" cy="39" r="0.2" fill="#6c757d" opacity="0.45"/>
    <circle cx="56" cy="61" r="0.1" fill="#adb5bd" opacity="0.4"/>
    <circle cx="39" cy="44" r="0.1" fill="#6c757d" opacity="0.4"/>
    <circle cx="61" cy="56" r="0.1" fill="#adb5bd" opacity="0.35"/>
    <circle cx="46" cy="64" r="0.1" fill="#adb5bd" opacity="0.3"/>
    <circle cx="54" cy="36" r="0.1" fill="#6c757d" opacity="0.35"/>
    <circle cx="41" cy="46" r="0.1" fill="#6c757d" opacity="0.35"/>
    <circle cx="59" cy="54" r="0.1" fill="#adb5bd" opacity="0.3"/>
    <circle cx="46" cy="41" r="0.1" fill="#adb5bd" opacity="0.3"/>
    <circle cx="54" cy="59" r="0.1" fill="#adb5bd" opacity="0.25"/>
    <circle cx="43" cy="53" r="0.1" fill="#adb5bd" opacity="0.25"/>
    <circle cx="57" cy="47" r="0.1" fill="#adb5bd" opacity="0.25"/>
    <circle cx="49" cy="46" r="0.1" fill="#6c757d" opacity="0.3"/>
    <circle cx="51" cy="54" r="0.1" fill="#adb5bd" opacity="0.25"/>
    <circle cx="47" cy="49" r="0.1" fill="#6c757d" opacity="0.25"/>
    <circle cx="53" cy="51" r="0.1" fill="#adb5bd" opacity="0.2"/>
    
    <!-- Extra fine dots for ultra-dense texture -->
    <circle cx="35" cy="48" r="0.1" fill="#6c757d" opacity="0.3"/>
    <circle cx="65" cy="52" r="0.1" fill="#adb5bd" opacity="0.25"/>
    <circle cx="48" cy="35" r="0.1" fill="#adb5bd" opacity="0.25"/>
    <circle cx="52" cy="65" r="0.1" fill="#adb5bd" opacity="0.2"/>
    <circle cx="36" cy="52" r="0.1" fill="#adb5bd" opacity="0.25"/>
    <circle cx="64" cy="48" r="0.1" fill="#adb5bd" opacity="0.2"/>
    <circle cx="52" cy="36" r="0.1" fill="#adb5bd" opacity="0.2"/>
    <circle cx="48" cy="64" r="0.1" fill="#adb5bd" opacity="0.15"/>
    
  </g>
  
  <!-- Text -->
  <text x="110" y="58" font-family="Inter, system-ui, -apple-system, sans-serif" font-size="28" font-weight="500" fill="url(#textGradient)">realms</text>
</svg>
