<svg width="300" height="100" viewBox="0 0 300 100" xmlns="http://www.w3.org/2000/svg">
  <defs>
    <!-- Text gradient -->
    <linearGradient id="textGradient" x1="0%" y1="0%" x2="100%" y2="0%">
      <stop offset="0%" style="stop-color:#495057;stop-opacity:1" />
      <stop offset="100%" style="stop-color:#212529;stop-opacity:1" />
    </linearGradient>
    
    <!-- Subtle shadow filter -->
    <filter id="dotShadow" x="-50%" y="-50%" width="200%" height="200%">
      <feGaussianBlur in="SourceAlpha" stdDeviation="0.8"/>
      <feOffset dx="0.8" dy="0.8" result="offset"/>
      <feComponentTransfer>
        <feFuncA type="linear" slope="0.15"/>
      </feComponentTransfer>
      <feMerge> 
        <feMergeNode/>
        <feMergeNode in="SourceGraphic"/> 
      </feMerge>
    </filter>
  </defs>
  
  <!-- Curved stippled sphere pattern (matching the provided image) -->
  <g filter="url(#dotShadow)">
    
    <!-- Top curved row - largest dots -->
    <ellipse cx="38" cy="28" rx="1.8" ry="0.9" fill="#212529" opacity="0.9" transform="rotate(-15 38 28)"/>
    <ellipse cx="44" cy="26" rx="2.2" ry="1.1" fill="#212529" opacity="0.95" transform="rotate(-10 44 26)"/>
    <ellipse cx="50" cy="25" rx="2.6" ry="1.3" fill="#212529" opacity="1.0" transform="rotate(-5 50 25)"/>
    <ellipse cx="56" cy="26" rx="2.2" ry="1.1" fill="#212529" opacity="0.95" transform="rotate(0 56 26)"/>
    <ellipse cx="62" cy="28" rx="1.8" ry="0.9" fill="#212529" opacity="0.9" transform="rotate(15 62 28)"/>
    
    <!-- Second curved row -->
    <ellipse cx="32" cy="34" rx="1.6" ry="0.8" fill="#343a40" opacity="0.85" transform="rotate(-20 32 34)"/>
    <ellipse cx="38" cy="32" rx="2.0" ry="1.0" fill="#343a40" opacity="0.9" transform="rotate(-15 38 32)"/>
    <ellipse cx="44" cy="31" rx="2.4" ry="1.2" fill="#212529" opacity="0.95" transform="rotate(-10 44 31)"/>
    <ellipse cx="50" cy="30" rx="2.8" ry="1.4" fill="#212529" opacity="1.0" transform="rotate(-5 50 30)"/>
    <ellipse cx="56" cy="31" rx="2.4" ry="1.2" fill="#212529" opacity="0.95" transform="rotate(0 56 31)"/>
    <ellipse cx="62" cy="32" rx="2.0" ry="1.0" fill="#343a40" opacity="0.9" transform="rotate(5 62 32)"/>
    <ellipse cx="68" cy="34" rx="1.6" ry="0.8" fill="#343a40" opacity="0.85" transform="rotate(20 68 34)"/>
    
    <!-- Third curved row -->
    <ellipse cx="28" cy="40" rx="1.4" ry="0.7" fill="#495057" opacity="0.8" transform="rotate(-25 28 40)"/>
    <ellipse cx="34" cy="38" rx="1.8" ry="0.9" fill="#495057" opacity="0.85" transform="rotate(-20 34 38)"/>
    <ellipse cx="40" cy="37" rx="2.2" ry="1.1" fill="#343a40" opacity="0.9" transform="rotate(-15 40 37)"/>
    <ellipse cx="46" cy="36" rx="2.6" ry="1.3" fill="#212529" opacity="0.95" transform="rotate(-10 46 36)"/>
    <ellipse cx="52" cy="35" rx="3.0" ry="1.5" fill="#212529" opacity="1.0" transform="rotate(-5 52 35)"/>
    <ellipse cx="58" cy="36" rx="2.6" ry="1.3" fill="#212529" opacity="0.95" transform="rotate(0 58 36)"/>
    <ellipse cx="64" cy="37" rx="2.2" ry="1.1" fill="#343a40" opacity="0.9" transform="rotate(5 64 37)"/>
    <ellipse cx="70" cy="38" rx="1.8" ry="0.9" fill="#495057" opacity="0.85" transform="rotate(10 70 38)"/>
    <ellipse cx="76" cy="40" rx="1.4" ry="0.7" fill="#495057" opacity="0.8" transform="rotate(25 76 40)"/>
    
    <!-- Fourth curved row (center) -->
    <ellipse cx="26" cy="46" rx="1.2" ry="0.6" fill="#6c757d" opacity="0.75" transform="rotate(-30 26 46)"/>
    <ellipse cx="32" cy="44" rx="1.6" ry="0.8" fill="#6c757d" opacity="0.8" transform="rotate(-25 32 44)"/>
    <ellipse cx="38" cy="43" rx="2.0" ry="1.0" fill="#495057" opacity="0.85" transform="rotate(-20 38 43)"/>
    <ellipse cx="44" cy="42" rx="2.4" ry="1.2" fill="#343a40" opacity="0.9" transform="rotate(-15 44 42)"/>
    <ellipse cx="50" cy="41" rx="2.8" ry="1.4" fill="#212529" opacity="0.95" transform="rotate(-10 50 41)"/>
    <ellipse cx="56" cy="42" rx="2.4" ry="1.2" fill="#343a40" opacity="0.9" transform="rotate(-5 56 42)"/>
    <ellipse cx="62" cy="43" rx="2.0" ry="1.0" fill="#495057" opacity="0.85" transform="rotate(0 62 43)"/>
    <ellipse cx="68" cy="44" rx="1.6" ry="0.8" fill="#6c757d" opacity="0.8" transform="rotate(5 68 44)"/>
    <ellipse cx="74" cy="46" rx="1.2" ry="0.6" fill="#6c757d" opacity="0.75" transform="rotate(30 74 46)"/>
    
    <!-- Fifth curved row -->
    <ellipse cx="24" cy="52" rx="1.0" ry="0.5" fill="#adb5bd" opacity="0.7" transform="rotate(-35 24 52)"/>
    <ellipse cx="30" cy="50" rx="1.4" ry="0.7" fill="#adb5bd" opacity="0.75" transform="rotate(-30 30 50)"/>
    <ellipse cx="36" cy="49" rx="1.8" ry="0.9" fill="#6c757d" opacity="0.8" transform="rotate(-25 36 49)"/>
    <ellipse cx="42" cy="48" rx="2.2" ry="1.1" fill="#495057" opacity="0.85" transform="rotate(-20 42 48)"/>
    <ellipse cx="48" cy="47" rx="2.6" ry="1.3" fill="#343a40" opacity="0.9" transform="rotate(-15 48 47)"/>
    <ellipse cx="54" cy="48" rx="2.2" ry="1.1" fill="#495057" opacity="0.85" transform="rotate(-10 54 48)"/>
    <ellipse cx="60" cy="49" rx="1.8" ry="0.9" fill="#6c757d" opacity="0.8" transform="rotate(-5 60 49)"/>
    <ellipse cx="66" cy="50" rx="1.4" ry="0.7" fill="#adb5bd" opacity="0.75" transform="rotate(0 66 50)"/>
    <ellipse cx="72" cy="52" rx="1.0" ry="0.5" fill="#adb5bd" opacity="0.7" transform="rotate(35 72 52)"/>
    
    <!-- Sixth curved row -->
    <ellipse cx="28" cy="58" rx="0.8" ry="0.4" fill="#adb5bd" opacity="0.65" transform="rotate(-30 28 58)"/>
    <ellipse cx="34" cy="56" rx="1.2" ry="0.6" fill="#adb5bd" opacity="0.7" transform="rotate(-25 34 56)"/>
    <ellipse cx="40" cy="55" rx="1.6" ry="0.8" fill="#6c757d" opacity="0.75" transform="rotate(-20 40 55)"/>
    <ellipse cx="46" cy="54" rx="2.0" ry="1.0" fill="#495057" opacity="0.8" transform="rotate(-15 46 54)"/>
    <ellipse cx="52" cy="53" rx="2.4" ry="1.2" fill="#343a40" opacity="0.85" transform="rotate(-10 52 53)"/>
    <ellipse cx="58" cy="54" rx="2.0" ry="1.0" fill="#495057" opacity="0.8" transform="rotate(-5 58 54)"/>
    <ellipse cx="64" cy="55" rx="1.6" ry="0.8" fill="#6c757d" opacity="0.75" transform="rotate(0 64 55)"/>
    <ellipse cx="70" cy="56" rx="1.2" ry="0.6" fill="#adb5bd" opacity="0.7" transform="rotate(5 70 56)"/>
    <ellipse cx="76" cy="58" rx="0.8" ry="0.4" fill="#adb5bd" opacity="0.65" transform="rotate(30 76 58)"/>
    
    <!-- Seventh curved row -->
    <ellipse cx="32" cy="64" rx="0.6" ry="0.3" fill="#adb5bd" opacity="0.6" transform="rotate(-25 32 64)"/>
    <ellipse cx="38" cy="62" rx="1.0" ry="0.5" fill="#adb5bd" opacity="0.65" transform="rotate(-20 38 62)"/>
    <ellipse cx="44" cy="61" rx="1.4" ry="0.7" fill="#6c757d" opacity="0.7" transform="rotate(-15 44 61)"/>
    <ellipse cx="50" cy="60" rx="1.8" ry="0.9" fill="#495057" opacity="0.75" transform="rotate(-10 50 60)"/>
    <ellipse cx="56" cy="61" rx="1.4" ry="0.7" fill="#6c757d" opacity="0.7" transform="rotate(-5 56 61)"/>
    <ellipse cx="62" cy="62" rx="1.0" ry="0.5" fill="#adb5bd" opacity="0.65" transform="rotate(0 62 62)"/>
    <ellipse cx="68" cy="64" rx="0.6" ry="0.3" fill="#adb5bd" opacity="0.6" transform="rotate(25 68 64)"/>
    
    <!-- Bottom curved row -->
    <ellipse cx="38" cy="70" rx="0.4" ry="0.2" fill="#adb5bd" opacity="0.55" transform="rotate(-15 38 70)"/>
    <ellipse cx="44" cy="68" rx="0.8" ry="0.4" fill="#adb5bd" opacity="0.6" transform="rotate(-10 44 68)"/>
    <ellipse cx="50" cy="67" rx="1.2" ry="0.6" fill="#6c757d" opacity="0.65" transform="rotate(-5 50 67)"/>
    <ellipse cx="56" cy="68" rx="0.8" ry="0.4" fill="#adb5bd" opacity="0.6" transform="rotate(0 56 68)"/>
    <ellipse cx="62" cy="70" rx="0.4" ry="0.2" fill="#adb5bd" opacity="0.55" transform="rotate(15 62 70)"/>
    
    <!-- Additional scattered dots for organic texture -->
    <circle cx="35" cy="45" r="0.3" fill="#6c757d" opacity="0.5"/>
    <circle cx="65" cy="47" r="0.2" fill="#adb5bd" opacity="0.45"/>
    <circle cx="42" cy="52" r="0.2" fill="#adb5bd" opacity="0.4"/>
    <circle cx="58" cy="50" r="0.1" fill="#adb5bd" opacity="0.35"/>
    <circle cx="47" cy="58" r="0.1" fill="#adb5bd" opacity="0.3"/>
    <circle cx="53" cy="45" r="0.1" fill="#6c757d" opacity="0.4"/>
    
  </g>
  
  <!-- Text -->
  <text x="110" y="58" font-family="Inter, system-ui, -apple-system, sans-serif" font-size="28" font-weight="500" fill="url(#textGradient)">realms</text>
</svg>
