<svg width="300" height="100" viewBox="0 0 300 100" xmlns="http://www.w3.org/2000/svg">
  <defs>
    <!-- Planet gradient with realistic lighting -->
    <radialGradient id="planetBody" cx="30%" cy="20%" r="100%">
      <stop offset="0%" style="stop-color:#ffffff;stop-opacity:1" />
      <stop offset="15%" style="stop-color:#f8f9fa;stop-opacity:1" />
      <stop offset="40%" style="stop-color:#e9ecef;stop-opacity:1" />
      <stop offset="70%" style="stop-color:#adb5bd;stop-opacity:1" />
      <stop offset="90%" style="stop-color:#495057;stop-opacity:1" />
      <stop offset="100%" style="stop-color:#212529;stop-opacity:1" />
    </radialGradient>
    
    <!-- Text gradient -->
    <linearGradient id="textGradient" x1="0%" y1="0%" x2="100%" y2="0%">
      <stop offset="0%" style="stop-color:#495057;stop-opacity:1" />
      <stop offset="100%" style="stop-color:#212529;stop-opacity:1" />
    </linearGradient>
    
    <!-- Planet shadow -->
    <filter id="planetShadow" x="-50%" y="-50%" width="200%" height="200%">
      <feGaussianBlur in="SourceAlpha" stdDeviation="3"/>
      <feOffset dx="3" dy="3" result="offset"/>
      <feComponentTransfer>
        <feFuncA type="linear" slope="0.25"/>
      </feComponentTransfer>
      <feMerge> 
        <feMergeNode/>
        <feMergeNode in="SourceGraphic"/> 
      </feMerge>
    </filter>
    
    <!-- Clipping path for planet boundary -->
    <clipPath id="planetClip">
      <circle cx="50" cy="50" r="30"/>
    </clipPath>
  </defs>
  
  <!-- Planet base -->
  <circle cx="50" cy="50" r="30" fill="url(#planetBody)" filter="url(#planetShadow)"/>
  
  <!-- Organic curve divisions within planet boundary -->
  <g clip-path="url(#planetClip)">
    
    <!-- Region 1: Small northern territory (Fibonacci: 1 unit) -->
    <path d="M 30 20 Q 45 25 55 18 Q 65 22 70 30 Q 60 35 50 32 Q 40 28 30 20 Z" 
          fill="#ffffff" opacity="0.9" stroke="#212529" stroke-width="0.5"/>
    
    <!-- Region 2: Eastern coastal area (Fibonacci: 1 unit) -->
    <path d="M 70 30 Q 75 40 78 50 Q 76 60 70 65 Q 65 58 62 50 Q 68 42 70 30 Z" 
          fill="#e9ecef" opacity="0.95" stroke="#212529" stroke-width="0.5"/>
    
    <!-- Region 3: Southern highlands (Fibonacci: 2 units) -->
    <path d="M 70 65 Q 60 72 45 75 Q 35 78 25 70 Q 30 65 40 68 Q 55 70 70 65 Z" 
          fill="#adb5bd" opacity="0.95" stroke="#212529" stroke-width="0.5"/>
    
    <!-- Region 4: Western continent (Fibonacci: 3 units) -->
    <path d="M 25 70 Q 18 60 15 45 Q 20 30 28 25 Q 35 35 32 50 Q 28 62 25 70 Z" 
          fill="#6c757d" opacity="0.95" stroke="#212529" stroke-width="0.5"/>
    
    <!-- Region 5: Central ocean/lowlands (Fibonacci: 5 units - largest area) -->
    <path d="M 30 20 Q 40 28 50 32 Q 60 35 70 30 Q 68 42 62 50 Q 65 58 70 65 Q 55 70 40 68 Q 30 65 25 70 Q 28 62 32 50 Q 35 35 28 25 Q 30 20 30 20 Z" 
          fill="#495057" opacity="0.9" stroke="#212529" stroke-width="0.5"/>
    
  </g>
  
  <!-- Atmospheric layers -->
  <circle cx="50" cy="50" r="31" fill="none" stroke="#ffffff" stroke-width="0.5" opacity="0.3"/>
  <circle cx="50" cy="50" r="32.5" fill="none" stroke="#ffffff" stroke-width="0.3" opacity="0.2"/>
  
  <!-- Surface features -->
  <circle cx="45" cy="35" r="1" fill="#ffffff" opacity="0.3"/>
  <circle cx="62" cy="55" r="0.8" fill="#ffffff" opacity="0.25"/>
  <circle cx="38" cy="62" r="1.2" fill="#ffffff" opacity="0.2"/>
  
  <!-- Text -->
  <text x="110" y="58" font-family="Inter, system-ui, -apple-system, sans-serif" font-size="28" font-weight="500" fill="url(#textGradient)">realms</text>
</svg>
