<?xml version="1.0" standalone="no"?>
<!DOCTYPE svg PUBLIC "-//W3C//DTD SVG 20010904//EN"
 "http://www.w3.org/TR/2001/REC-SVG-20010904/DTD/svg10.dtd">
<svg version="1.0" xmlns="http://www.w3.org/2000/svg"
 width="398.000000pt" height="448.000000pt" viewBox="0 0 398.000000 448.000000"
 preserveAspectRatio="xMidYMid meet">

<g transform="translate(199.000000,0.000000) scale(0.100000,-0.100000) translate(-1990.000000,-2240.000000)"
fill="#000000" stroke="none">
<path d="m2338 1691 c24 -10 42 -20 40 -24 -2 -3 18 -20 45 -36 78 -50 55 -71
-31 -27 -70 36 -116 73 -101 81 8 5 2 12 -17 21 -25 12 -26 13 -4 8 14 -4 44
-14 68 -23z m196 -73 c22 -13 46 -27 53 -33 6 -5 37 -27 68 -49 36 -24 53 -42
47 -48 -15 -15 -218 114 -207 132 3 5 -1 11 -7 13 -7 3 -9 6 -4 6 4 1 27 -9
50 -21z m-127 -48 c53 -30 99 -82 88 -100 -12 -20 -67 -10 -111 21 -53 36 -90
89 -71 101 21 13 40 9 94 -22z m436 -132 c37 -27 67 -54 67 -59 0 -10 -115 68
-176 120 l-39 33 40 -22 c22 -12 70 -45 108 -72z m-179 37 c45 -29 116 -101
116 -118 0 -3 -11 -8 -24 -11 -19 -5 -39 4 -81 33 -47 33 -115 107 -115 126 0
16 57 0 104 -30z m-292 -37 c38 -26 49 -41 58 -76 6 -25 9 -47 6 -49 -3 -3
-24 -7 -48 -10 -38 -4 -49 0 -90 32 -27 20 -48 42 -48 49 0 8 -3 27 -6 44 -6
32 -4 33 66 41 8 0 36 -13 62 -31z m509 -64 c58 -42 141 -133 133 -145 -10
-16 -26 -10 -80 31 -78 61 -142 150 -107 150 3 0 27 -16 54 -36z m-207 -45
c52 -37 70 -62 90 -126 6 -18 1 -22 -31 -30 -36 -9 -42 -7 -94 34 -45 33 -60
53 -73 90 -19 55 -16 60 45 72 3 0 31 -17 63 -40z m-425 -69 c53 -42 56 -51
42 -114 -5 -26 -13 -31 -56 -42 -48 -13 -51 -12 -84 14 -71 56 -69 53 -62 107
6 48 7 49 51 61 25 7 48 12 52 13 3 1 29 -17 57 -39z m913 -114 c53 -63 57
-88 7 -40 -52 48 -149 164 -149 176 0 15 76 -58 142 -136z m-198 49 c21 -16
51 -56 67 -87 28 -55 28 -58 10 -68 -31 -16 -40 -13 -93 32 -33 28 -58 59 -74
96 -13 30 -24 56 -24 59 0 2 10 7 23 12 23 9 26 8 91 -44z m-359 -56 c58 -48
63 -58 64 -121 l1 -46 -50 -12 -49 -12 -56 48 c-55 48 -55 48 -55 106 0 56 1
58 33 67 52 15 60 13 112 -30z m647 -176 c30 -57 32 -64 17 -78 -14 -15 -20
-11 -63 39 -62 73 -109 165 -94 184 17 19 100 -66 140 -145z m-1213 76 l44
-40 -9 -57 c-8 -53 -11 -58 -44 -68 -87 -28 -91 -28 -145 20 l-50 44 20 58
c20 58 21 59 70 71 69 16 65 17 114 -28z m903 -46 c32 -34 49 -62 57 -95 16
-69 15 -74 -30 -87 l-42 -13 -44 44 c-56 54 -59 61 -68 130 -6 50 -5 57 11 61
52 13 70 7 116 -40z m404 -93 c52 -81 85 -150 77 -163 -6 -10 -28 24 -90 137
-41 76 -49 96 -38 96 3 0 26 -32 51 -70z m-893 4 l48 -46 -3 -61 c-3 -69 -15
-80 -93 -92 -37 -5 -43 -3 -91 43 l-51 49 9 59 c5 32 11 61 14 64 7 6 83 28
104 29 8 0 37 -20 63 -45z m756 -48 c34 -34 47 -59 62 -112 l19 -69 -22 -17
c-13 -10 -27 -17 -33 -17 -22 0 -97 110 -111 161 -18 69 -18 86 4 91 33 9 38
7 81 -37z m-1410 -134 c0 -10 -8 -39 -18 -67 l-18 -50 -69 -17 -69 -17 -43 42
c-48 46 -50 64 -19 139 14 33 20 37 79 51 l63 14 48 -39 c26 -22 47 -47 46
-56z m1033 31 c48 -47 48 -47 48 -114 l0 -67 -52 -18 -52 -17 -48 52 c-47 52
-48 53 -48 120 0 68 0 68 33 79 56 18 70 13 119 -35z m577 -53 c50 -82 76
-210 42 -210 -34 0 -122 225 -98 249 18 18 24 14 56 -39z m-1194 -70 l49 -50
-13 -62 c-7 -35 -14 -65 -16 -69 -3 -3 -34 -14 -71 -24 l-66 -18 -51 51 -50
50 14 69 15 68 59 17 c33 9 65 17 70 17 6 1 33 -21 60 -49z m933 -10 c50 -60
62 -89 62 -152 0 -54 -2 -59 -30 -73 -45 -23 -56 -19 -104 41 -45 54 -46 58
-46 124 l0 68 38 15 c20 9 39 16 42 16 3 0 20 -17 38 -39z m407 -240 c2 -19
-8 3 -24 50 -16 47 -32 103 -35 125 -3 24 6 4 24 -50 16 -49 32 -106 35 -125z
m-2137 97 c23 -23 42 -49 42 -56 0 -8 -8 -38 -17 -67 -16 -52 -18 -54 -69 -69
-73 -21 -77 -20 -123 30 l-41 44 23 63 c22 62 22 62 77 79 30 9 57 17 60 18 3
1 25 -18 48 -42z m1226 -6 l48 -49 -7 -53 c-10 -84 -11 -85 -75 -104 l-60 -18
-22 24 c-12 13 -34 38 -49 54 -27 30 -27 31 -15 99 11 69 11 69 51 82 66 20
78 17 129 -35z m771 -44 c19 -39 25 -66 25 -117 0 -62 -2 -68 -26 -79 -15 -6
-28 -10 -29 -9 -1 2 -16 26 -33 53 -23 40 -31 65 -35 123 -4 70 -4 73 22 86
32 18 42 10 76 -57z m-1502 -105 l48 -49 -17 -67 c-9 -38 -24 -70 -33 -75 -9
-5 -42 -14 -74 -22 l-58 -12 -49 48 c-29 29 -48 56 -46 65 3 8 12 40 20 71
l16 57 57 15 c84 22 84 22 136 -31z m1107 -3 l43 -50 -7 -71 c-3 -39 -9 -74
-11 -78 -3 -5 -28 -16 -55 -25 -56 -19 -56 -19 -114 65 -23 33 -23 39 -14 107
l11 72 41 15 c59 21 60 21 106 -35z m535 -35 c25 -87 31 -178 12 -204 -17 -25
-19 -23 -40 45 -30 99 -29 240 3 220 5 -3 16 -30 25 -61z m-1170 -129 l42 -50
-16 -69 -16 -68 -64 -20 -64 -20 -39 39 c-60 58 -62 66 -42 143 l17 67 56 16
c31 8 62 15 70 14 7 -1 33 -24 56 -52z m928 6 c28 -51 31 -76 21 -155 -6 -42
-11 -49 -46 -67 -22 -11 -41 -19 -42 -17 -51 72 -62 119 -50 210 5 38 12 48
38 61 45 23 48 22 79 -32z m-2218 -13 c33 -39 36 -47 30 -83 -10 -67 -26 -87
-81 -106 l-51 -17 -37 43 c-41 50 -42 53 -21 122 14 47 19 53 58 66 60 22 62
21 102 -25z m2412 -134 c10 -28 13 -62 8 -121 -6 -73 -10 -85 -32 -103 -14
-11 -29 -18 -33 -15 -19 12 -32 99 -26 173 6 63 11 80 29 94 29 23 38 19 54
-28z m-704 -15 l39 -50 -17 -74 -16 -74 -59 -20 -59 -19 -42 49 c-38 46 -41
53 -36 92 14 95 25 114 70 130 67 24 78 21 120 -34z m-1229 -8 l48 -49 -12
-54 c-18 -78 -23 -83 -91 -102 l-62 -17 -49 48 c-53 52 -53 51 -28 145 10 35
15 39 73 57 34 10 64 20 67 20 3 1 28 -21 54 -48z m2007 -259 c-6 -36 -15 -70
-22 -76 -17 -16 -5 205 13 236 12 21 13 19 16 -36 2 -32 -1 -88 -7 -124z
m-443 113 c24 -42 25 -78 2 -156 -8 -30 -18 -39 -55 -53 -24 -10 -49 -15 -54
-12 -5 3 -21 26 -35 50 l-25 43 19 68 c23 79 17 70 60 89 48 21 61 17 88 -29z
m-1069 -25 l43 -50 -19 -62 -18 -62 -64 -19 -64 -19 -47 47 -47 47 17 66 17
67 54 16 c30 10 61 17 70 18 9 1 35 -22 58 -49z m-1260 -7 c23 -27 31 -47 30
-73 -2 -64 -12 -82 -54 -97 l-40 -14 -32 37 c-51 57 -45 146 11 170 45 19 51
18 85 -23z m2569 -114 c13 -40 12 -51 -7 -114 -17 -57 -26 -73 -52 -87 -17
-10 -34 -18 -39 -18 -4 0 -15 21 -24 47 -15 45 -15 51 5 119 18 60 26 74 53
87 17 9 35 14 41 13 5 -1 16 -23 23 -47z m-856 -30 l37 -44 -20 -67 -20 -67
-52 -17 c-28 -9 -57 -19 -63 -21 -6 -2 -30 19 -53 46 l-42 50 17 58 c10 32 22
63 28 70 12 12 105 43 120 39 6 -1 27 -22 48 -47z m-1237 -102 c-9 -70 -13
-75 -68 -92 l-51 -15 -45 44 -44 45 9 58 9 57 55 17 55 17 43 -41 c42 -41 43
-43 37 -90z m2205 -88 c-23 -76 -43 -109 -67 -109 -34 0 4 179 49 227 l23 25
8 -35 c6 -26 3 -54 -13 -108z m-601 47 l30 -44 -24 -63 c-24 -62 -27 -65 -76
-83 l-52 -18 -23 29 c-36 43 -39 67 -15 131 20 52 27 60 64 74 60 23 63 23 96
-26z m-1140 -39 l33 -35 -18 -58 -19 -58 -58 -14 -59 -15 -44 44 c-25 25 -42
50 -40 59 3 8 10 34 16 56 10 40 12 42 68 56 64 17 73 14 121 -35z m-1149 11
c24 -27 29 -42 30 -83 0 -47 -2 -51 -29 -62 -27 -10 -32 -8 -59 21 -24 24 -31
42 -34 81 -3 44 0 51 22 62 35 18 37 17 70 -19z m2920 -67 c-25 -83 -52 -152
-57 -147 -5 5 43 157 59 189 17 32 16 17 -2 -42z m-353 -34 c15 -36 14 -41
-11 -101 -21 -50 -34 -66 -62 -79 -50 -24 -59 -22 -76 22 -15 37 -14 42 11
102 21 51 34 68 61 81 47 23 60 19 77 -25z m-963 -46 l38 -39 -19 -59 -20 -58
-60 -16 -61 -17 -41 42 -41 42 20 61 c20 58 23 61 63 70 70 17 81 15 121 -26z
m-1210 -10 c37 -38 38 -41 31 -89 -6 -48 -8 -50 -47 -60 -38 -10 -42 -9 -79
25 -38 34 -40 39 -37 87 3 48 5 52 38 63 51 17 52 17 94 -26z m2344 -58 c6
-60 -74 -183 -118 -183 -21 0 -10 81 19 138 41 82 93 105 99 45z m-743 -62
l27 -40 -25 -55 c-23 -50 -29 -55 -74 -69 -45 -13 -49 -13 -71 7 -41 36 -44
50 -21 110 20 52 25 57 68 70 66 20 66 20 96 -23z m-2105 -20 c10 -15 21 -43
25 -62 6 -31 4 -37 -13 -41 -48 -13 -117 117 -75 141 20 11 33 3 63 -38z m941
-8 c38 -36 40 -40 33 -81 -7 -46 -20 -57 -74 -66 -30 -5 -41 -1 -74 28 -40 34
-40 34 -30 82 8 45 12 49 49 60 55 17 51 18 96 -23z m1944 -68 c-39 -77 -85
-133 -85 -102 0 23 78 168 98 183 30 22 26 -5 -13 -81z m-477 -8 c17 -47 15
-56 -17 -108 -23 -37 -39 -50 -76 -62 l-46 -16 -16 35 c-16 34 -16 36 10 90
22 44 35 58 70 74 57 25 61 25 75 -13z m-2086 -50 c29 -25 37 -41 40 -71 2
-35 0 -40 -25 -49 -23 -7 -33 -4 -61 20 -35 29 -46 51 -46 95 0 25 11 34 45
36 6 1 27 -13 47 -31z m1074 -2 l43 -35 -16 -48 c-9 -26 -17 -48 -18 -50 -2
-2 -26 -9 -54 -17 l-51 -13 -40 36 -40 37 13 45 c13 41 18 46 63 62 27 9 51
17 53 17 2 1 23 -15 47 -34z m1214 -60 c0 -57 -81 -155 -129 -155 -5 0 -12 12
-15 26 -13 52 76 163 132 164 7 0 12 -14 12 -35z m-2649 -42 c34 -37 53 -83
36 -83 -21 0 -87 79 -87 104 0 15 29 3 51 -21z m1859 -56 c0 -4 -9 -25 -20
-47 -17 -32 -29 -42 -68 -54 -46 -13 -48 -13 -74 12 -33 30 -33 33 -12 88 14
38 21 43 67 57 l52 14 27 -31 c15 -17 27 -35 28 -39z m-1110 20 c23 -18 29
-30 29 -63 1 -29 -4 -44 -15 -48 -30 -12 -57 -6 -91 20 -27 21 -33 32 -33 64
0 33 4 40 28 48 32 12 45 9 82 -21z m2005 6 c-13 -53 -123 -178 -141 -160 -15
15 69 139 114 169 35 23 35 23 27 -9z m-601 -83 c18 -31 17 -31 -14 -79 -25
-40 -38 -51 -73 -60 -38 -10 -44 -9 -59 10 -24 28 -23 42 8 89 22 33 71 63
114 69 3 1 14 -13 24 -29z m610 8 c-17 -28 -107 -128 -112 -123 -3 2 21 34 52
70 54 61 77 81 60 53z m-2493 -20 c17 -13 37 -38 45 -57 18 -42 18 -41 -6 -41
-50 0 -122 90 -89 111 18 11 15 12 50 -13z m896 -36 c29 -24 31 -31 25 -62 -7
-30 -14 -37 -49 -48 -40 -13 -44 -12 -78 13 -30 23 -35 33 -35 67 0 31 5 40
23 48 41 16 81 10 114 -18z m1206 -39 c8 -45 -79 -133 -133 -133 -4 0 -10 10
-13 22 -8 30 47 103 93 122 47 20 47 20 53 -11z m-2273 -57 c0 -5 -16 5 -35
24 -19 19 -35 38 -35 44 0 5 16 -5 35 -24 19 -19 35 -38 35 -44z m508 -3 c67
-59 41 -121 -31 -72 -17 12 -33 23 -34 24 -2 1 -6 15 -9 32 -6 31 -4 33 36 42
3 0 20 -11 38 -26z m940 -6 c20 -21 21 -27 11 -56 -18 -52 -84 -67 -128 -30
-22 18 -23 22 -12 59 12 39 22 45 82 49 15 0 34 -8 47 -22z m957 1 c-13 -44
-109 -128 -144 -128 -29 0 46 95 104 131 39 25 48 24 40 -3z m-2219 -63 c41
-32 62 -65 40 -65 -18 0 -86 63 -86 79 0 17 10 14 46 -14z m2220 -30 c-61 -57
-106 -89 -106 -76 0 13 128 121 143 121 7 -1 -10 -21 -37 -45z m-646 11 c11
-21 10 -29 -9 -59 -27 -44 -91 -65 -116 -38 -19 22 -19 32 2 69 16 28 54 48
94 51 9 1 21 -10 29 -23z m-904 -17 c28 -17 34 -27 34 -54 0 -28 -4 -33 -27
-38 -36 -7 -93 30 -93 61 0 12 0 25 -1 30 0 6 13 11 50 21 2 1 19 -8 37 -20z
m1128 -51 c8 -32 -48 -87 -97 -95 -32 -5 -37 -3 -37 13 0 29 43 76 81 90 46
17 46 17 53 -8z m-1509 -39 c39 -34 44 -49 17 -49 -19 0 -92 56 -92 71 0 19
41 8 75 -22z m733 -7 c49 -38 -11 -104 -65 -73 -41 23 -44 28 -38 54 10 39 64
49 103 19z m915 -10 c-2 -10 -30 -35 -60 -55 -56 -37 -83 -46 -83 -27 0 22
106 100 136 100 7 0 10 -8 7 -18z m-1810 -41 c9 -11 5 -10 -19 2 -17 9 -37 24
-45 33 -12 16 -10 15 19 -2 19 -10 39 -25 45 -33z m1847 -12 c-37 -31 -110
-72 -117 -66 -6 7 115 87 131 87 6 -1 0 -10 -14 -21z m-1410 -5 c28 -19 50
-44 50 -56 0 -25 -92 8 -104 38 -13 35 14 44 54 18z m753 -2 c15 -16 15 -20
-6 -44 -30 -35 -69 -43 -91 -19 -14 16 -15 23 -6 41 21 39 77 51 103 22z
m-992 -54 c44 -24 54 -47 12 -24 -36 19 -70 45 -59 46 4 0 26 -10 47 -22z
m1202 -3 c12 -29 -82 -80 -105 -57 -9 9 -6 17 8 33 33 37 87 51 97 24z m-672
-21 c19 -9 29 -21 27 -32 -4 -22 -35 -27 -64 -11 -34 18 -31 49 4 58 2 1 17
-6 33 -15z m809 -14 c0 -12 -82 -60 -103 -60 -35 0 -15 21 53 57 30 15 50 17
50 3z m-1090 -42 c19 -11 30 -23 23 -25 -13 -5 -68 21 -78 37 -11 17 18 11 55
-12z m541 2 c15 -9 17 -15 9 -30 -17 -32 -80 -23 -80 10 0 16 13 24 43 29 5 0
17 -4 28 -9z m589 5 c0 -7 -93 -46 -97 -41 -3 3 12 14 34 25 36 19 63 26 63
16z m-414 -71 c-22 -15 -66 -19 -66 -5 0 22 57 44 75 29 6 -6 3 -14 -9 -24z
m-485 6 c13 -10 19 -19 12 -20 -21 0 -63 19 -63 30 0 16 26 12 51 -10z m604
-9 c-7 -12 -75 -35 -82 -28 -6 6 54 35 75 36 7 1 11 -3 7 -8z m-404 -27 c11
-14 9 -15 -16 -12 -16 1 -30 9 -33 16 -6 18 33 15 49 -4z m139 -18 c0 -9 -30
-14 -35 -6 -4 6 3 10 14 10 12 0 21 -2 21 -4z"/>
</g>
</svg>
