<svg width="16" height="16" viewBox="0 0 96 96" fill="none" xmlns="http://www.w3.org/2000/svg">
  <!-- Stippled sphere favicon design -->
  <defs>
    <radialGradient id="sphereGradient" cx="0.4" cy="0.3" r="0.8">
      <stop offset="0%" style="stop-color:#6B7280;stop-opacity:1" />
      <stop offset="70%" style="stop-color:#374151;stop-opacity:1" />
      <stop offset="100%" style="stop-color:#1F2937;stop-opacity:1" />
    </radialGradient>
  </defs>
  
  <!-- Large center dots -->
  <circle cx="48" cy="48" r="8" fill="url(#sphereGradient)"/>
  <circle cx="38" cy="42" r="6" fill="url(#sphereGradient)"/>
  <circle cx="58" cy="44" r="6" fill="url(#sphereGradient)"/>
  <circle cx="42" cy="58" r="5" fill="url(#sphereGradient)"/>
  <circle cx="56" cy="56" r="5" fill="url(#sphereGradient)"/>
  
  <!-- Medium dots -->
  <circle cx="32" cy="36" r="4" fill="url(#sphereGradient)"/>
  <circle cx="64" cy="38" r="4" fill="url(#sphereGradient)"/>
  <circle cx="34" cy="54" r="4" fill="url(#sphereGradient)"/>
  <circle cx="62" cy="52" r="4" fill="url(#sphereGradient)"/>
  <circle cx="48" cy="32" r="3" fill="url(#sphereGradient)"/>
  <circle cx="48" cy="64" r="3" fill="url(#sphereGradient)"/>
  
  <!-- Small edge dots -->
  <circle cx="28" cy="48" r="2.5" fill="url(#sphereGradient)"/>
  <circle cx="68" cy="48" r="2.5" fill="url(#sphereGradient)"/>
  <circle cx="42" cy="28" r="2" fill="url(#sphereGradient)"/>
  <circle cx="54" cy="30" r="2" fill="url(#sphereGradient)"/>
  <circle cx="40" cy="68" r="2" fill="url(#sphereGradient)"/>
  <circle cx="56" cy="66" r="2" fill="url(#sphereGradient)"/>
  
  <!-- Tiny peripheral dots -->
  <circle cx="24" cy="42" r="1.5" fill="url(#sphereGradient)"/>
  <circle cx="72" cy="44" r="1.5" fill="url(#sphereGradient)"/>
  <circle cx="26" cy="54" r="1.5" fill="url(#sphereGradient)"/>
  <circle cx="70" cy="52" r="1.5" fill="url(#sphereGradient)"/>
  <circle cx="36" cy="24" r="1" fill="url(#sphereGradient)"/>
  <circle cx="60" cy="26" r="1" fill="url(#sphereGradient)"/>
  <circle cx="38" cy="72" r="1" fill="url(#sphereGradient)"/>
  <circle cx="58" cy="70" r="1" fill="url(#sphereGradient)"/>
</svg>
